M48
METRIC
T1C0.850
T2C1.016
T3C1.100
%
G90
G05
T1
X152.4Y-115.57
X154.94Y-115.57
X157.48Y-115.57
X160.02Y-115.57
X162.56Y-115.57
X165.1Y-115.57
X167.64Y-115.57
X170.18Y-115.57
X172.72Y-115.57
X175.26Y-115.57
T2
X147.32Y-119.38
X147.32Y-134.62
X149.86Y-119.38
X149.86Y-134.62
X152.4Y-119.38
X152.4Y-134.62
X154.94Y-119.38
X154.94Y-134.62
X157.48Y-119.38
X157.48Y-134.62
X160.02Y-119.38
X160.02Y-134.62
X162.56Y-119.38
X162.56Y-134.62
X165.1Y-119.38
X165.1Y-134.62
X167.64Y-119.38
X167.64Y-134.62
X170.18Y-119.38
X170.18Y-134.62
X172.72Y-119.38
X172.72Y-134.62
X175.26Y-119.38
X175.26Y-134.62
T3
X144.78Y-109.07
X144.78Y-115.57
X149.28Y-109.07
X149.28Y-115.57
T0
M30
