G04 #@! TF.GenerationSoftware,KiCad,Pcbnew,5.1.5+dfsg1-2build2*
G04 #@! TF.CreationDate,2021-01-24T16:59:37+01:00*
G04 #@! TF.ProjectId,edtracker,65647472-6163-46b6-9572-2e6b69636164,rev?*
G04 #@! TF.SameCoordinates,Original*
G04 #@! TF.FileFunction,Copper,L1,Top*
G04 #@! TF.FilePolarity,Positive*
%FSLAX46Y46*%
G04 Gerber Fmt 4.6, Leading zero omitted, Abs format (unit mm)*
G04 Created by KiCad (PCBNEW 5.1.5+dfsg1-2build2) date 2021-01-24 16:59:37*
%MOMM*%
%LPD*%
G04 APERTURE LIST*
%ADD10C,0.050000*%
%ADD11C,1.600000*%
%ADD12R,1.600000X1.600000*%
%ADD13C,1.879600*%
%ADD14C,2.000000*%
%ADD15C,0.250000*%
%ADD16C,0.350000*%
G04 APERTURE END LIST*
D10*
X140970000Y-100330000D02*
X140970000Y-119380000D01*
X177800000Y-100330000D02*
X140970000Y-100330000D01*
X177800000Y-137160000D02*
X177800000Y-100330000D01*
X140970000Y-137160000D02*
X177800000Y-137160000D01*
X140970000Y-134620000D02*
X140970000Y-137160000D01*
X143510000Y-132080000D02*
X140970000Y-134620000D01*
X143510000Y-121920000D02*
X143510000Y-132080000D01*
X140970000Y-119380000D02*
X143510000Y-121920000D01*
D11*
X175260000Y-115570000D03*
X172720000Y-115570000D03*
X170180000Y-115570000D03*
X167640000Y-115570000D03*
X165100000Y-115570000D03*
X162560000Y-115570000D03*
X160020000Y-115570000D03*
X157480000Y-115570000D03*
X154940000Y-115570000D03*
D12*
X152400000Y-115570000D03*
D13*
X147320000Y-119380000D03*
X149860000Y-119380000D03*
X152400000Y-119380000D03*
X154940000Y-119380000D03*
X157480000Y-119380000D03*
X160020000Y-119380000D03*
X162560000Y-119380000D03*
X165100000Y-119380000D03*
X167640000Y-119380000D03*
X170180000Y-119380000D03*
X172720000Y-119380000D03*
X175260000Y-119380000D03*
X175260000Y-134620000D03*
X172720000Y-134620000D03*
X170180000Y-134620000D03*
X167640000Y-134620000D03*
X165100000Y-134620000D03*
X162560000Y-134620000D03*
X160020000Y-134620000D03*
X157480000Y-134620000D03*
X154940000Y-134620000D03*
X152400000Y-134620000D03*
X149860000Y-134620000D03*
X147320000Y-134620000D03*
D14*
X144780000Y-109070000D03*
X149280000Y-109070000D03*
X144780000Y-115570000D03*
X149280000Y-115570000D03*
D15*
X149280000Y-115570000D02*
X149280000Y-109070000D01*
X176530000Y-114300000D02*
X176530000Y-118110000D01*
X176530000Y-118110000D02*
X175260000Y-119380000D01*
X171300000Y-109070000D02*
X176530000Y-114300000D01*
X149280000Y-109070000D02*
X171300000Y-109070000D01*
X170180000Y-115570000D02*
X170180000Y-116840000D01*
X169240201Y-133680201D02*
X170180000Y-134620000D01*
X168915199Y-133355199D02*
X169240201Y-133680201D01*
X168915199Y-118104801D02*
X168915199Y-133355199D01*
X170180000Y-116840000D02*
X168915199Y-118104801D01*
X157480000Y-115570000D02*
X157480000Y-116840000D01*
X157480000Y-116840000D02*
X158750000Y-118110000D01*
X158750000Y-133350000D02*
X160020000Y-134620000D01*
X158750000Y-118110000D02*
X158750000Y-133350000D01*
X156210000Y-133350000D02*
X157480000Y-134620000D01*
X156210000Y-114300000D02*
X156210000Y-133350000D01*
X157480000Y-113030000D02*
X156210000Y-114300000D01*
X158730000Y-113030000D02*
X157480000Y-113030000D01*
X160020000Y-114320000D02*
X158730000Y-113030000D01*
X160020000Y-115570000D02*
X160020000Y-114320000D01*
X152400000Y-116840000D02*
X154940000Y-119380000D01*
X152400000Y-115570000D02*
X152400000Y-116840000D01*
D16*
X175260000Y-115570000D03*
X172720000Y-115570000D03*
X170180000Y-115570000D03*
X167640000Y-115570000D03*
X165100000Y-115570000D03*
X162560000Y-115570000D03*
X160020000Y-115570000D03*
X157480000Y-115570000D03*
X154940000Y-115570000D03*
X152400000Y-115570000D03*
X147320000Y-119380000D03*
X149860000Y-119380000D03*
X152400000Y-119380000D03*
X154940000Y-119380000D03*
X157480000Y-119380000D03*
X160020000Y-119380000D03*
X162560000Y-119380000D03*
X165100000Y-119380000D03*
X167640000Y-119380000D03*
X170180000Y-119380000D03*
X172720000Y-119380000D03*
X175260000Y-119380000D03*
X175260000Y-134620000D03*
X172720000Y-134620000D03*
X170180000Y-134620000D03*
X167640000Y-134620000D03*
X165100000Y-134620000D03*
X162560000Y-134620000D03*
X160020000Y-134620000D03*
X157480000Y-134620000D03*
X154940000Y-134620000D03*
X152400000Y-134620000D03*
X149860000Y-134620000D03*
X147320000Y-134620000D03*
X144780000Y-109070000D03*
X149280000Y-109070000D03*
X144780000Y-115570000D03*
X149280000Y-115570000D03*
M02*
