G04 #@! TF.GenerationSoftware,KiCad,Pcbnew,5.1.5+dfsg1-2build2*
G04 #@! TF.CreationDate,2021-01-23T00:34:54+01:00*
G04 #@! TF.ProjectId,edtracker,65647472-6163-46b6-9572-2e6b69636164,rev?*
G04 #@! TF.SameCoordinates,Original*
G04 #@! TF.FileFunction,Soldermask,Top*
G04 #@! TF.FilePolarity,Negative*
%FSLAX46Y46*%
G04 Gerber Fmt 4.6, Leading zero omitted, Abs format (unit mm)*
G04 Created by KiCad (PCBNEW 5.1.5+dfsg1-2build2) date 2021-01-23 00:34:54*
%MOMM*%
%LPD*%
G04 APERTURE LIST*
%ADD10C,0.100000*%
G04 APERTURE END LIST*
D10*
G36*
X170483765Y-133618620D02*
G01*
X170673288Y-133697123D01*
X170843854Y-133811092D01*
X170988908Y-133956146D01*
X171102877Y-134126712D01*
X171181380Y-134316235D01*
X171221400Y-134517431D01*
X171221400Y-134722569D01*
X171181380Y-134923765D01*
X171102877Y-135113288D01*
X170988908Y-135283854D01*
X170843854Y-135428908D01*
X170673288Y-135542877D01*
X170673287Y-135542878D01*
X170673286Y-135542878D01*
X170483765Y-135621380D01*
X170282570Y-135661400D01*
X170077430Y-135661400D01*
X169876235Y-135621380D01*
X169686714Y-135542878D01*
X169686713Y-135542878D01*
X169686712Y-135542877D01*
X169516146Y-135428908D01*
X169371092Y-135283854D01*
X169257123Y-135113288D01*
X169178620Y-134923765D01*
X169138600Y-134722569D01*
X169138600Y-134517431D01*
X169178620Y-134316235D01*
X169257123Y-134126712D01*
X169371092Y-133956146D01*
X169516146Y-133811092D01*
X169686712Y-133697123D01*
X169876235Y-133618620D01*
X170077430Y-133578600D01*
X170282570Y-133578600D01*
X170483765Y-133618620D01*
G37*
G36*
X173023765Y-133618620D02*
G01*
X173213288Y-133697123D01*
X173383854Y-133811092D01*
X173528908Y-133956146D01*
X173642877Y-134126712D01*
X173721380Y-134316235D01*
X173761400Y-134517431D01*
X173761400Y-134722569D01*
X173721380Y-134923765D01*
X173642877Y-135113288D01*
X173528908Y-135283854D01*
X173383854Y-135428908D01*
X173213288Y-135542877D01*
X173213287Y-135542878D01*
X173213286Y-135542878D01*
X173023765Y-135621380D01*
X172822570Y-135661400D01*
X172617430Y-135661400D01*
X172416235Y-135621380D01*
X172226714Y-135542878D01*
X172226713Y-135542878D01*
X172226712Y-135542877D01*
X172056146Y-135428908D01*
X171911092Y-135283854D01*
X171797123Y-135113288D01*
X171718620Y-134923765D01*
X171678600Y-134722569D01*
X171678600Y-134517431D01*
X171718620Y-134316235D01*
X171797123Y-134126712D01*
X171911092Y-133956146D01*
X172056146Y-133811092D01*
X172226712Y-133697123D01*
X172416235Y-133618620D01*
X172617430Y-133578600D01*
X172822570Y-133578600D01*
X173023765Y-133618620D01*
G37*
G36*
X175563765Y-133618620D02*
G01*
X175753288Y-133697123D01*
X175923854Y-133811092D01*
X176068908Y-133956146D01*
X176182877Y-134126712D01*
X176261380Y-134316235D01*
X176301400Y-134517431D01*
X176301400Y-134722569D01*
X176261380Y-134923765D01*
X176182877Y-135113288D01*
X176068908Y-135283854D01*
X175923854Y-135428908D01*
X175753288Y-135542877D01*
X175753287Y-135542878D01*
X175753286Y-135542878D01*
X175563765Y-135621380D01*
X175362570Y-135661400D01*
X175157430Y-135661400D01*
X174956235Y-135621380D01*
X174766714Y-135542878D01*
X174766713Y-135542878D01*
X174766712Y-135542877D01*
X174596146Y-135428908D01*
X174451092Y-135283854D01*
X174337123Y-135113288D01*
X174258620Y-134923765D01*
X174218600Y-134722569D01*
X174218600Y-134517431D01*
X174258620Y-134316235D01*
X174337123Y-134126712D01*
X174451092Y-133956146D01*
X174596146Y-133811092D01*
X174766712Y-133697123D01*
X174956235Y-133618620D01*
X175157430Y-133578600D01*
X175362570Y-133578600D01*
X175563765Y-133618620D01*
G37*
G36*
X147623765Y-133618620D02*
G01*
X147813288Y-133697123D01*
X147983854Y-133811092D01*
X148128908Y-133956146D01*
X148242877Y-134126712D01*
X148321380Y-134316235D01*
X148361400Y-134517431D01*
X148361400Y-134722569D01*
X148321380Y-134923765D01*
X148242877Y-135113288D01*
X148128908Y-135283854D01*
X147983854Y-135428908D01*
X147813288Y-135542877D01*
X147813287Y-135542878D01*
X147813286Y-135542878D01*
X147623765Y-135621380D01*
X147422570Y-135661400D01*
X147217430Y-135661400D01*
X147016235Y-135621380D01*
X146826714Y-135542878D01*
X146826713Y-135542878D01*
X146826712Y-135542877D01*
X146656146Y-135428908D01*
X146511092Y-135283854D01*
X146397123Y-135113288D01*
X146318620Y-134923765D01*
X146278600Y-134722569D01*
X146278600Y-134517431D01*
X146318620Y-134316235D01*
X146397123Y-134126712D01*
X146511092Y-133956146D01*
X146656146Y-133811092D01*
X146826712Y-133697123D01*
X147016235Y-133618620D01*
X147217430Y-133578600D01*
X147422570Y-133578600D01*
X147623765Y-133618620D01*
G37*
G36*
X150163765Y-133618620D02*
G01*
X150353288Y-133697123D01*
X150523854Y-133811092D01*
X150668908Y-133956146D01*
X150782877Y-134126712D01*
X150861380Y-134316235D01*
X150901400Y-134517431D01*
X150901400Y-134722569D01*
X150861380Y-134923765D01*
X150782877Y-135113288D01*
X150668908Y-135283854D01*
X150523854Y-135428908D01*
X150353288Y-135542877D01*
X150353287Y-135542878D01*
X150353286Y-135542878D01*
X150163765Y-135621380D01*
X149962570Y-135661400D01*
X149757430Y-135661400D01*
X149556235Y-135621380D01*
X149366714Y-135542878D01*
X149366713Y-135542878D01*
X149366712Y-135542877D01*
X149196146Y-135428908D01*
X149051092Y-135283854D01*
X148937123Y-135113288D01*
X148858620Y-134923765D01*
X148818600Y-134722569D01*
X148818600Y-134517431D01*
X148858620Y-134316235D01*
X148937123Y-134126712D01*
X149051092Y-133956146D01*
X149196146Y-133811092D01*
X149366712Y-133697123D01*
X149556235Y-133618620D01*
X149757430Y-133578600D01*
X149962570Y-133578600D01*
X150163765Y-133618620D01*
G37*
G36*
X152703765Y-133618620D02*
G01*
X152893288Y-133697123D01*
X153063854Y-133811092D01*
X153208908Y-133956146D01*
X153322877Y-134126712D01*
X153401380Y-134316235D01*
X153441400Y-134517431D01*
X153441400Y-134722569D01*
X153401380Y-134923765D01*
X153322877Y-135113288D01*
X153208908Y-135283854D01*
X153063854Y-135428908D01*
X152893288Y-135542877D01*
X152893287Y-135542878D01*
X152893286Y-135542878D01*
X152703765Y-135621380D01*
X152502570Y-135661400D01*
X152297430Y-135661400D01*
X152096235Y-135621380D01*
X151906714Y-135542878D01*
X151906713Y-135542878D01*
X151906712Y-135542877D01*
X151736146Y-135428908D01*
X151591092Y-135283854D01*
X151477123Y-135113288D01*
X151398620Y-134923765D01*
X151358600Y-134722569D01*
X151358600Y-134517431D01*
X151398620Y-134316235D01*
X151477123Y-134126712D01*
X151591092Y-133956146D01*
X151736146Y-133811092D01*
X151906712Y-133697123D01*
X152096235Y-133618620D01*
X152297430Y-133578600D01*
X152502570Y-133578600D01*
X152703765Y-133618620D01*
G37*
G36*
X155243765Y-133618620D02*
G01*
X155433288Y-133697123D01*
X155603854Y-133811092D01*
X155748908Y-133956146D01*
X155862877Y-134126712D01*
X155941380Y-134316235D01*
X155981400Y-134517431D01*
X155981400Y-134722569D01*
X155941380Y-134923765D01*
X155862877Y-135113288D01*
X155748908Y-135283854D01*
X155603854Y-135428908D01*
X155433288Y-135542877D01*
X155433287Y-135542878D01*
X155433286Y-135542878D01*
X155243765Y-135621380D01*
X155042570Y-135661400D01*
X154837430Y-135661400D01*
X154636235Y-135621380D01*
X154446714Y-135542878D01*
X154446713Y-135542878D01*
X154446712Y-135542877D01*
X154276146Y-135428908D01*
X154131092Y-135283854D01*
X154017123Y-135113288D01*
X153938620Y-134923765D01*
X153898600Y-134722569D01*
X153898600Y-134517431D01*
X153938620Y-134316235D01*
X154017123Y-134126712D01*
X154131092Y-133956146D01*
X154276146Y-133811092D01*
X154446712Y-133697123D01*
X154636235Y-133618620D01*
X154837430Y-133578600D01*
X155042570Y-133578600D01*
X155243765Y-133618620D01*
G37*
G36*
X157783765Y-133618620D02*
G01*
X157973288Y-133697123D01*
X158143854Y-133811092D01*
X158288908Y-133956146D01*
X158402877Y-134126712D01*
X158481380Y-134316235D01*
X158521400Y-134517431D01*
X158521400Y-134722569D01*
X158481380Y-134923765D01*
X158402877Y-135113288D01*
X158288908Y-135283854D01*
X158143854Y-135428908D01*
X157973288Y-135542877D01*
X157973287Y-135542878D01*
X157973286Y-135542878D01*
X157783765Y-135621380D01*
X157582570Y-135661400D01*
X157377430Y-135661400D01*
X157176235Y-135621380D01*
X156986714Y-135542878D01*
X156986713Y-135542878D01*
X156986712Y-135542877D01*
X156816146Y-135428908D01*
X156671092Y-135283854D01*
X156557123Y-135113288D01*
X156478620Y-134923765D01*
X156438600Y-134722569D01*
X156438600Y-134517431D01*
X156478620Y-134316235D01*
X156557123Y-134126712D01*
X156671092Y-133956146D01*
X156816146Y-133811092D01*
X156986712Y-133697123D01*
X157176235Y-133618620D01*
X157377430Y-133578600D01*
X157582570Y-133578600D01*
X157783765Y-133618620D01*
G37*
G36*
X160323765Y-133618620D02*
G01*
X160513288Y-133697123D01*
X160683854Y-133811092D01*
X160828908Y-133956146D01*
X160942877Y-134126712D01*
X161021380Y-134316235D01*
X161061400Y-134517431D01*
X161061400Y-134722569D01*
X161021380Y-134923765D01*
X160942877Y-135113288D01*
X160828908Y-135283854D01*
X160683854Y-135428908D01*
X160513288Y-135542877D01*
X160513287Y-135542878D01*
X160513286Y-135542878D01*
X160323765Y-135621380D01*
X160122570Y-135661400D01*
X159917430Y-135661400D01*
X159716235Y-135621380D01*
X159526714Y-135542878D01*
X159526713Y-135542878D01*
X159526712Y-135542877D01*
X159356146Y-135428908D01*
X159211092Y-135283854D01*
X159097123Y-135113288D01*
X159018620Y-134923765D01*
X158978600Y-134722569D01*
X158978600Y-134517431D01*
X159018620Y-134316235D01*
X159097123Y-134126712D01*
X159211092Y-133956146D01*
X159356146Y-133811092D01*
X159526712Y-133697123D01*
X159716235Y-133618620D01*
X159917430Y-133578600D01*
X160122570Y-133578600D01*
X160323765Y-133618620D01*
G37*
G36*
X162863765Y-133618620D02*
G01*
X163053288Y-133697123D01*
X163223854Y-133811092D01*
X163368908Y-133956146D01*
X163482877Y-134126712D01*
X163561380Y-134316235D01*
X163601400Y-134517431D01*
X163601400Y-134722569D01*
X163561380Y-134923765D01*
X163482877Y-135113288D01*
X163368908Y-135283854D01*
X163223854Y-135428908D01*
X163053288Y-135542877D01*
X163053287Y-135542878D01*
X163053286Y-135542878D01*
X162863765Y-135621380D01*
X162662570Y-135661400D01*
X162457430Y-135661400D01*
X162256235Y-135621380D01*
X162066714Y-135542878D01*
X162066713Y-135542878D01*
X162066712Y-135542877D01*
X161896146Y-135428908D01*
X161751092Y-135283854D01*
X161637123Y-135113288D01*
X161558620Y-134923765D01*
X161518600Y-134722569D01*
X161518600Y-134517431D01*
X161558620Y-134316235D01*
X161637123Y-134126712D01*
X161751092Y-133956146D01*
X161896146Y-133811092D01*
X162066712Y-133697123D01*
X162256235Y-133618620D01*
X162457430Y-133578600D01*
X162662570Y-133578600D01*
X162863765Y-133618620D01*
G37*
G36*
X165403765Y-133618620D02*
G01*
X165593288Y-133697123D01*
X165763854Y-133811092D01*
X165908908Y-133956146D01*
X166022877Y-134126712D01*
X166101380Y-134316235D01*
X166141400Y-134517431D01*
X166141400Y-134722569D01*
X166101380Y-134923765D01*
X166022877Y-135113288D01*
X165908908Y-135283854D01*
X165763854Y-135428908D01*
X165593288Y-135542877D01*
X165593287Y-135542878D01*
X165593286Y-135542878D01*
X165403765Y-135621380D01*
X165202570Y-135661400D01*
X164997430Y-135661400D01*
X164796235Y-135621380D01*
X164606714Y-135542878D01*
X164606713Y-135542878D01*
X164606712Y-135542877D01*
X164436146Y-135428908D01*
X164291092Y-135283854D01*
X164177123Y-135113288D01*
X164098620Y-134923765D01*
X164058600Y-134722569D01*
X164058600Y-134517431D01*
X164098620Y-134316235D01*
X164177123Y-134126712D01*
X164291092Y-133956146D01*
X164436146Y-133811092D01*
X164606712Y-133697123D01*
X164796235Y-133618620D01*
X164997430Y-133578600D01*
X165202570Y-133578600D01*
X165403765Y-133618620D01*
G37*
G36*
X167943765Y-133618620D02*
G01*
X168133288Y-133697123D01*
X168303854Y-133811092D01*
X168448908Y-133956146D01*
X168562877Y-134126712D01*
X168641380Y-134316235D01*
X168681400Y-134517431D01*
X168681400Y-134722569D01*
X168641380Y-134923765D01*
X168562877Y-135113288D01*
X168448908Y-135283854D01*
X168303854Y-135428908D01*
X168133288Y-135542877D01*
X168133287Y-135542878D01*
X168133286Y-135542878D01*
X167943765Y-135621380D01*
X167742570Y-135661400D01*
X167537430Y-135661400D01*
X167336235Y-135621380D01*
X167146714Y-135542878D01*
X167146713Y-135542878D01*
X167146712Y-135542877D01*
X166976146Y-135428908D01*
X166831092Y-135283854D01*
X166717123Y-135113288D01*
X166638620Y-134923765D01*
X166598600Y-134722569D01*
X166598600Y-134517431D01*
X166638620Y-134316235D01*
X166717123Y-134126712D01*
X166831092Y-133956146D01*
X166976146Y-133811092D01*
X167146712Y-133697123D01*
X167336235Y-133618620D01*
X167537430Y-133578600D01*
X167742570Y-133578600D01*
X167943765Y-133618620D01*
G37*
G36*
X157783765Y-118378620D02*
G01*
X157973288Y-118457123D01*
X158143854Y-118571092D01*
X158288908Y-118716146D01*
X158402877Y-118886712D01*
X158481380Y-119076235D01*
X158521400Y-119277431D01*
X158521400Y-119482569D01*
X158481380Y-119683765D01*
X158402877Y-119873288D01*
X158288908Y-120043854D01*
X158143854Y-120188908D01*
X157973288Y-120302877D01*
X157973287Y-120302878D01*
X157973286Y-120302878D01*
X157783765Y-120381380D01*
X157582570Y-120421400D01*
X157377430Y-120421400D01*
X157176235Y-120381380D01*
X156986714Y-120302878D01*
X156986713Y-120302878D01*
X156986712Y-120302877D01*
X156816146Y-120188908D01*
X156671092Y-120043854D01*
X156557123Y-119873288D01*
X156478620Y-119683765D01*
X156438600Y-119482569D01*
X156438600Y-119277431D01*
X156478620Y-119076235D01*
X156557123Y-118886712D01*
X156671092Y-118716146D01*
X156816146Y-118571092D01*
X156986712Y-118457123D01*
X157176235Y-118378620D01*
X157377430Y-118338600D01*
X157582570Y-118338600D01*
X157783765Y-118378620D01*
G37*
G36*
X160323765Y-118378620D02*
G01*
X160513288Y-118457123D01*
X160683854Y-118571092D01*
X160828908Y-118716146D01*
X160942877Y-118886712D01*
X161021380Y-119076235D01*
X161061400Y-119277431D01*
X161061400Y-119482569D01*
X161021380Y-119683765D01*
X160942877Y-119873288D01*
X160828908Y-120043854D01*
X160683854Y-120188908D01*
X160513288Y-120302877D01*
X160513287Y-120302878D01*
X160513286Y-120302878D01*
X160323765Y-120381380D01*
X160122570Y-120421400D01*
X159917430Y-120421400D01*
X159716235Y-120381380D01*
X159526714Y-120302878D01*
X159526713Y-120302878D01*
X159526712Y-120302877D01*
X159356146Y-120188908D01*
X159211092Y-120043854D01*
X159097123Y-119873288D01*
X159018620Y-119683765D01*
X158978600Y-119482569D01*
X158978600Y-119277431D01*
X159018620Y-119076235D01*
X159097123Y-118886712D01*
X159211092Y-118716146D01*
X159356146Y-118571092D01*
X159526712Y-118457123D01*
X159716235Y-118378620D01*
X159917430Y-118338600D01*
X160122570Y-118338600D01*
X160323765Y-118378620D01*
G37*
G36*
X162863765Y-118378620D02*
G01*
X163053288Y-118457123D01*
X163223854Y-118571092D01*
X163368908Y-118716146D01*
X163482877Y-118886712D01*
X163561380Y-119076235D01*
X163601400Y-119277431D01*
X163601400Y-119482569D01*
X163561380Y-119683765D01*
X163482877Y-119873288D01*
X163368908Y-120043854D01*
X163223854Y-120188908D01*
X163053288Y-120302877D01*
X163053287Y-120302878D01*
X163053286Y-120302878D01*
X162863765Y-120381380D01*
X162662570Y-120421400D01*
X162457430Y-120421400D01*
X162256235Y-120381380D01*
X162066714Y-120302878D01*
X162066713Y-120302878D01*
X162066712Y-120302877D01*
X161896146Y-120188908D01*
X161751092Y-120043854D01*
X161637123Y-119873288D01*
X161558620Y-119683765D01*
X161518600Y-119482569D01*
X161518600Y-119277431D01*
X161558620Y-119076235D01*
X161637123Y-118886712D01*
X161751092Y-118716146D01*
X161896146Y-118571092D01*
X162066712Y-118457123D01*
X162256235Y-118378620D01*
X162457430Y-118338600D01*
X162662570Y-118338600D01*
X162863765Y-118378620D01*
G37*
G36*
X165403765Y-118378620D02*
G01*
X165593288Y-118457123D01*
X165763854Y-118571092D01*
X165908908Y-118716146D01*
X166022877Y-118886712D01*
X166101380Y-119076235D01*
X166141400Y-119277431D01*
X166141400Y-119482569D01*
X166101380Y-119683765D01*
X166022877Y-119873288D01*
X165908908Y-120043854D01*
X165763854Y-120188908D01*
X165593288Y-120302877D01*
X165593287Y-120302878D01*
X165593286Y-120302878D01*
X165403765Y-120381380D01*
X165202570Y-120421400D01*
X164997430Y-120421400D01*
X164796235Y-120381380D01*
X164606714Y-120302878D01*
X164606713Y-120302878D01*
X164606712Y-120302877D01*
X164436146Y-120188908D01*
X164291092Y-120043854D01*
X164177123Y-119873288D01*
X164098620Y-119683765D01*
X164058600Y-119482569D01*
X164058600Y-119277431D01*
X164098620Y-119076235D01*
X164177123Y-118886712D01*
X164291092Y-118716146D01*
X164436146Y-118571092D01*
X164606712Y-118457123D01*
X164796235Y-118378620D01*
X164997430Y-118338600D01*
X165202570Y-118338600D01*
X165403765Y-118378620D01*
G37*
G36*
X167943765Y-118378620D02*
G01*
X168133288Y-118457123D01*
X168303854Y-118571092D01*
X168448908Y-118716146D01*
X168562877Y-118886712D01*
X168641380Y-119076235D01*
X168681400Y-119277431D01*
X168681400Y-119482569D01*
X168641380Y-119683765D01*
X168562877Y-119873288D01*
X168448908Y-120043854D01*
X168303854Y-120188908D01*
X168133288Y-120302877D01*
X168133287Y-120302878D01*
X168133286Y-120302878D01*
X167943765Y-120381380D01*
X167742570Y-120421400D01*
X167537430Y-120421400D01*
X167336235Y-120381380D01*
X167146714Y-120302878D01*
X167146713Y-120302878D01*
X167146712Y-120302877D01*
X166976146Y-120188908D01*
X166831092Y-120043854D01*
X166717123Y-119873288D01*
X166638620Y-119683765D01*
X166598600Y-119482569D01*
X166598600Y-119277431D01*
X166638620Y-119076235D01*
X166717123Y-118886712D01*
X166831092Y-118716146D01*
X166976146Y-118571092D01*
X167146712Y-118457123D01*
X167336235Y-118378620D01*
X167537430Y-118338600D01*
X167742570Y-118338600D01*
X167943765Y-118378620D01*
G37*
G36*
X170483765Y-118378620D02*
G01*
X170673288Y-118457123D01*
X170843854Y-118571092D01*
X170988908Y-118716146D01*
X171102877Y-118886712D01*
X171181380Y-119076235D01*
X171221400Y-119277431D01*
X171221400Y-119482569D01*
X171181380Y-119683765D01*
X171102877Y-119873288D01*
X170988908Y-120043854D01*
X170843854Y-120188908D01*
X170673288Y-120302877D01*
X170673287Y-120302878D01*
X170673286Y-120302878D01*
X170483765Y-120381380D01*
X170282570Y-120421400D01*
X170077430Y-120421400D01*
X169876235Y-120381380D01*
X169686714Y-120302878D01*
X169686713Y-120302878D01*
X169686712Y-120302877D01*
X169516146Y-120188908D01*
X169371092Y-120043854D01*
X169257123Y-119873288D01*
X169178620Y-119683765D01*
X169138600Y-119482569D01*
X169138600Y-119277431D01*
X169178620Y-119076235D01*
X169257123Y-118886712D01*
X169371092Y-118716146D01*
X169516146Y-118571092D01*
X169686712Y-118457123D01*
X169876235Y-118378620D01*
X170077430Y-118338600D01*
X170282570Y-118338600D01*
X170483765Y-118378620D01*
G37*
G36*
X175563765Y-118378620D02*
G01*
X175753288Y-118457123D01*
X175923854Y-118571092D01*
X176068908Y-118716146D01*
X176182877Y-118886712D01*
X176261380Y-119076235D01*
X176301400Y-119277431D01*
X176301400Y-119482569D01*
X176261380Y-119683765D01*
X176182877Y-119873288D01*
X176068908Y-120043854D01*
X175923854Y-120188908D01*
X175753288Y-120302877D01*
X175753287Y-120302878D01*
X175753286Y-120302878D01*
X175563765Y-120381380D01*
X175362570Y-120421400D01*
X175157430Y-120421400D01*
X174956235Y-120381380D01*
X174766714Y-120302878D01*
X174766713Y-120302878D01*
X174766712Y-120302877D01*
X174596146Y-120188908D01*
X174451092Y-120043854D01*
X174337123Y-119873288D01*
X174258620Y-119683765D01*
X174218600Y-119482569D01*
X174218600Y-119277431D01*
X174258620Y-119076235D01*
X174337123Y-118886712D01*
X174451092Y-118716146D01*
X174596146Y-118571092D01*
X174766712Y-118457123D01*
X174956235Y-118378620D01*
X175157430Y-118338600D01*
X175362570Y-118338600D01*
X175563765Y-118378620D01*
G37*
G36*
X152703765Y-118378620D02*
G01*
X152893288Y-118457123D01*
X153063854Y-118571092D01*
X153208908Y-118716146D01*
X153322877Y-118886712D01*
X153401380Y-119076235D01*
X153441400Y-119277431D01*
X153441400Y-119482569D01*
X153401380Y-119683765D01*
X153322877Y-119873288D01*
X153208908Y-120043854D01*
X153063854Y-120188908D01*
X152893288Y-120302877D01*
X152893287Y-120302878D01*
X152893286Y-120302878D01*
X152703765Y-120381380D01*
X152502570Y-120421400D01*
X152297430Y-120421400D01*
X152096235Y-120381380D01*
X151906714Y-120302878D01*
X151906713Y-120302878D01*
X151906712Y-120302877D01*
X151736146Y-120188908D01*
X151591092Y-120043854D01*
X151477123Y-119873288D01*
X151398620Y-119683765D01*
X151358600Y-119482569D01*
X151358600Y-119277431D01*
X151398620Y-119076235D01*
X151477123Y-118886712D01*
X151591092Y-118716146D01*
X151736146Y-118571092D01*
X151906712Y-118457123D01*
X152096235Y-118378620D01*
X152297430Y-118338600D01*
X152502570Y-118338600D01*
X152703765Y-118378620D01*
G37*
G36*
X147623765Y-118378620D02*
G01*
X147813288Y-118457123D01*
X147983854Y-118571092D01*
X148128908Y-118716146D01*
X148242877Y-118886712D01*
X148321380Y-119076235D01*
X148361400Y-119277431D01*
X148361400Y-119482569D01*
X148321380Y-119683765D01*
X148242877Y-119873288D01*
X148128908Y-120043854D01*
X147983854Y-120188908D01*
X147813288Y-120302877D01*
X147813287Y-120302878D01*
X147813286Y-120302878D01*
X147623765Y-120381380D01*
X147422570Y-120421400D01*
X147217430Y-120421400D01*
X147016235Y-120381380D01*
X146826714Y-120302878D01*
X146826713Y-120302878D01*
X146826712Y-120302877D01*
X146656146Y-120188908D01*
X146511092Y-120043854D01*
X146397123Y-119873288D01*
X146318620Y-119683765D01*
X146278600Y-119482569D01*
X146278600Y-119277431D01*
X146318620Y-119076235D01*
X146397123Y-118886712D01*
X146511092Y-118716146D01*
X146656146Y-118571092D01*
X146826712Y-118457123D01*
X147016235Y-118378620D01*
X147217430Y-118338600D01*
X147422570Y-118338600D01*
X147623765Y-118378620D01*
G37*
G36*
X155243765Y-118378620D02*
G01*
X155433288Y-118457123D01*
X155603854Y-118571092D01*
X155748908Y-118716146D01*
X155862877Y-118886712D01*
X155941380Y-119076235D01*
X155981400Y-119277431D01*
X155981400Y-119482569D01*
X155941380Y-119683765D01*
X155862877Y-119873288D01*
X155748908Y-120043854D01*
X155603854Y-120188908D01*
X155433288Y-120302877D01*
X155433287Y-120302878D01*
X155433286Y-120302878D01*
X155243765Y-120381380D01*
X155042570Y-120421400D01*
X154837430Y-120421400D01*
X154636235Y-120381380D01*
X154446714Y-120302878D01*
X154446713Y-120302878D01*
X154446712Y-120302877D01*
X154276146Y-120188908D01*
X154131092Y-120043854D01*
X154017123Y-119873288D01*
X153938620Y-119683765D01*
X153898600Y-119482569D01*
X153898600Y-119277431D01*
X153938620Y-119076235D01*
X154017123Y-118886712D01*
X154131092Y-118716146D01*
X154276146Y-118571092D01*
X154446712Y-118457123D01*
X154636235Y-118378620D01*
X154837430Y-118338600D01*
X155042570Y-118338600D01*
X155243765Y-118378620D01*
G37*
G36*
X150163765Y-118378620D02*
G01*
X150353288Y-118457123D01*
X150523854Y-118571092D01*
X150668908Y-118716146D01*
X150782877Y-118886712D01*
X150861380Y-119076235D01*
X150901400Y-119277431D01*
X150901400Y-119482569D01*
X150861380Y-119683765D01*
X150782877Y-119873288D01*
X150668908Y-120043854D01*
X150523854Y-120188908D01*
X150353288Y-120302877D01*
X150353287Y-120302878D01*
X150353286Y-120302878D01*
X150163765Y-120381380D01*
X149962570Y-120421400D01*
X149757430Y-120421400D01*
X149556235Y-120381380D01*
X149366714Y-120302878D01*
X149366713Y-120302878D01*
X149366712Y-120302877D01*
X149196146Y-120188908D01*
X149051092Y-120043854D01*
X148937123Y-119873288D01*
X148858620Y-119683765D01*
X148818600Y-119482569D01*
X148818600Y-119277431D01*
X148858620Y-119076235D01*
X148937123Y-118886712D01*
X149051092Y-118716146D01*
X149196146Y-118571092D01*
X149366712Y-118457123D01*
X149556235Y-118378620D01*
X149757430Y-118338600D01*
X149962570Y-118338600D01*
X150163765Y-118378620D01*
G37*
G36*
X173023765Y-118378620D02*
G01*
X173213288Y-118457123D01*
X173383854Y-118571092D01*
X173528908Y-118716146D01*
X173642877Y-118886712D01*
X173721380Y-119076235D01*
X173761400Y-119277431D01*
X173761400Y-119482569D01*
X173721380Y-119683765D01*
X173642877Y-119873288D01*
X173528908Y-120043854D01*
X173383854Y-120188908D01*
X173213288Y-120302877D01*
X173213287Y-120302878D01*
X173213286Y-120302878D01*
X173023765Y-120381380D01*
X172822570Y-120421400D01*
X172617430Y-120421400D01*
X172416235Y-120381380D01*
X172226714Y-120302878D01*
X172226713Y-120302878D01*
X172226712Y-120302877D01*
X172056146Y-120188908D01*
X171911092Y-120043854D01*
X171797123Y-119873288D01*
X171718620Y-119683765D01*
X171678600Y-119482569D01*
X171678600Y-119277431D01*
X171718620Y-119076235D01*
X171797123Y-118886712D01*
X171911092Y-118716146D01*
X172056146Y-118571092D01*
X172226712Y-118457123D01*
X172416235Y-118378620D01*
X172617430Y-118338600D01*
X172822570Y-118338600D01*
X173023765Y-118378620D01*
G37*
G36*
X145086564Y-114559389D02*
G01*
X145277833Y-114638615D01*
X145277835Y-114638616D01*
X145398138Y-114719000D01*
X145449973Y-114753635D01*
X145596365Y-114900027D01*
X145711385Y-115072167D01*
X145790611Y-115263436D01*
X145831000Y-115466484D01*
X145831000Y-115673516D01*
X145790611Y-115876564D01*
X145711385Y-116067833D01*
X145711384Y-116067835D01*
X145596365Y-116239973D01*
X145449973Y-116386365D01*
X145277835Y-116501384D01*
X145277834Y-116501385D01*
X145277833Y-116501385D01*
X145086564Y-116580611D01*
X144883516Y-116621000D01*
X144676484Y-116621000D01*
X144473436Y-116580611D01*
X144282167Y-116501385D01*
X144282166Y-116501385D01*
X144282165Y-116501384D01*
X144110027Y-116386365D01*
X143963635Y-116239973D01*
X143848616Y-116067835D01*
X143848615Y-116067833D01*
X143769389Y-115876564D01*
X143729000Y-115673516D01*
X143729000Y-115466484D01*
X143769389Y-115263436D01*
X143848615Y-115072167D01*
X143963635Y-114900027D01*
X144110027Y-114753635D01*
X144161862Y-114719000D01*
X144282165Y-114638616D01*
X144282167Y-114638615D01*
X144473436Y-114559389D01*
X144676484Y-114519000D01*
X144883516Y-114519000D01*
X145086564Y-114559389D01*
G37*
G36*
X149586564Y-114559389D02*
G01*
X149777833Y-114638615D01*
X149777835Y-114638616D01*
X149898138Y-114719000D01*
X149949973Y-114753635D01*
X150096365Y-114900027D01*
X150211385Y-115072167D01*
X150290611Y-115263436D01*
X150331000Y-115466484D01*
X150331000Y-115673516D01*
X150290611Y-115876564D01*
X150211385Y-116067833D01*
X150211384Y-116067835D01*
X150096365Y-116239973D01*
X149949973Y-116386365D01*
X149777835Y-116501384D01*
X149777834Y-116501385D01*
X149777833Y-116501385D01*
X149586564Y-116580611D01*
X149383516Y-116621000D01*
X149176484Y-116621000D01*
X148973436Y-116580611D01*
X148782167Y-116501385D01*
X148782166Y-116501385D01*
X148782165Y-116501384D01*
X148610027Y-116386365D01*
X148463635Y-116239973D01*
X148348616Y-116067835D01*
X148348615Y-116067833D01*
X148269389Y-115876564D01*
X148229000Y-115673516D01*
X148229000Y-115466484D01*
X148269389Y-115263436D01*
X148348615Y-115072167D01*
X148463635Y-114900027D01*
X148610027Y-114753635D01*
X148661862Y-114719000D01*
X148782165Y-114638616D01*
X148782167Y-114638615D01*
X148973436Y-114559389D01*
X149176484Y-114519000D01*
X149383516Y-114519000D01*
X149586564Y-114559389D01*
G37*
G36*
X172968228Y-114751703D02*
G01*
X173123100Y-114815853D01*
X173262481Y-114908985D01*
X173381015Y-115027519D01*
X173474147Y-115166900D01*
X173538297Y-115321772D01*
X173571000Y-115486184D01*
X173571000Y-115653816D01*
X173538297Y-115818228D01*
X173474147Y-115973100D01*
X173381015Y-116112481D01*
X173262481Y-116231015D01*
X173123100Y-116324147D01*
X172968228Y-116388297D01*
X172803816Y-116421000D01*
X172636184Y-116421000D01*
X172471772Y-116388297D01*
X172316900Y-116324147D01*
X172177519Y-116231015D01*
X172058985Y-116112481D01*
X171965853Y-115973100D01*
X171901703Y-115818228D01*
X171869000Y-115653816D01*
X171869000Y-115486184D01*
X171901703Y-115321772D01*
X171965853Y-115166900D01*
X172058985Y-115027519D01*
X172177519Y-114908985D01*
X172316900Y-114815853D01*
X172471772Y-114751703D01*
X172636184Y-114719000D01*
X172803816Y-114719000D01*
X172968228Y-114751703D01*
G37*
G36*
X153251000Y-116421000D02*
G01*
X151549000Y-116421000D01*
X151549000Y-114719000D01*
X153251000Y-114719000D01*
X153251000Y-116421000D01*
G37*
G36*
X157728228Y-114751703D02*
G01*
X157883100Y-114815853D01*
X158022481Y-114908985D01*
X158141015Y-115027519D01*
X158234147Y-115166900D01*
X158298297Y-115321772D01*
X158331000Y-115486184D01*
X158331000Y-115653816D01*
X158298297Y-115818228D01*
X158234147Y-115973100D01*
X158141015Y-116112481D01*
X158022481Y-116231015D01*
X157883100Y-116324147D01*
X157728228Y-116388297D01*
X157563816Y-116421000D01*
X157396184Y-116421000D01*
X157231772Y-116388297D01*
X157076900Y-116324147D01*
X156937519Y-116231015D01*
X156818985Y-116112481D01*
X156725853Y-115973100D01*
X156661703Y-115818228D01*
X156629000Y-115653816D01*
X156629000Y-115486184D01*
X156661703Y-115321772D01*
X156725853Y-115166900D01*
X156818985Y-115027519D01*
X156937519Y-114908985D01*
X157076900Y-114815853D01*
X157231772Y-114751703D01*
X157396184Y-114719000D01*
X157563816Y-114719000D01*
X157728228Y-114751703D01*
G37*
G36*
X160268228Y-114751703D02*
G01*
X160423100Y-114815853D01*
X160562481Y-114908985D01*
X160681015Y-115027519D01*
X160774147Y-115166900D01*
X160838297Y-115321772D01*
X160871000Y-115486184D01*
X160871000Y-115653816D01*
X160838297Y-115818228D01*
X160774147Y-115973100D01*
X160681015Y-116112481D01*
X160562481Y-116231015D01*
X160423100Y-116324147D01*
X160268228Y-116388297D01*
X160103816Y-116421000D01*
X159936184Y-116421000D01*
X159771772Y-116388297D01*
X159616900Y-116324147D01*
X159477519Y-116231015D01*
X159358985Y-116112481D01*
X159265853Y-115973100D01*
X159201703Y-115818228D01*
X159169000Y-115653816D01*
X159169000Y-115486184D01*
X159201703Y-115321772D01*
X159265853Y-115166900D01*
X159358985Y-115027519D01*
X159477519Y-114908985D01*
X159616900Y-114815853D01*
X159771772Y-114751703D01*
X159936184Y-114719000D01*
X160103816Y-114719000D01*
X160268228Y-114751703D01*
G37*
G36*
X162808228Y-114751703D02*
G01*
X162963100Y-114815853D01*
X163102481Y-114908985D01*
X163221015Y-115027519D01*
X163314147Y-115166900D01*
X163378297Y-115321772D01*
X163411000Y-115486184D01*
X163411000Y-115653816D01*
X163378297Y-115818228D01*
X163314147Y-115973100D01*
X163221015Y-116112481D01*
X163102481Y-116231015D01*
X162963100Y-116324147D01*
X162808228Y-116388297D01*
X162643816Y-116421000D01*
X162476184Y-116421000D01*
X162311772Y-116388297D01*
X162156900Y-116324147D01*
X162017519Y-116231015D01*
X161898985Y-116112481D01*
X161805853Y-115973100D01*
X161741703Y-115818228D01*
X161709000Y-115653816D01*
X161709000Y-115486184D01*
X161741703Y-115321772D01*
X161805853Y-115166900D01*
X161898985Y-115027519D01*
X162017519Y-114908985D01*
X162156900Y-114815853D01*
X162311772Y-114751703D01*
X162476184Y-114719000D01*
X162643816Y-114719000D01*
X162808228Y-114751703D01*
G37*
G36*
X165348228Y-114751703D02*
G01*
X165503100Y-114815853D01*
X165642481Y-114908985D01*
X165761015Y-115027519D01*
X165854147Y-115166900D01*
X165918297Y-115321772D01*
X165951000Y-115486184D01*
X165951000Y-115653816D01*
X165918297Y-115818228D01*
X165854147Y-115973100D01*
X165761015Y-116112481D01*
X165642481Y-116231015D01*
X165503100Y-116324147D01*
X165348228Y-116388297D01*
X165183816Y-116421000D01*
X165016184Y-116421000D01*
X164851772Y-116388297D01*
X164696900Y-116324147D01*
X164557519Y-116231015D01*
X164438985Y-116112481D01*
X164345853Y-115973100D01*
X164281703Y-115818228D01*
X164249000Y-115653816D01*
X164249000Y-115486184D01*
X164281703Y-115321772D01*
X164345853Y-115166900D01*
X164438985Y-115027519D01*
X164557519Y-114908985D01*
X164696900Y-114815853D01*
X164851772Y-114751703D01*
X165016184Y-114719000D01*
X165183816Y-114719000D01*
X165348228Y-114751703D01*
G37*
G36*
X167888228Y-114751703D02*
G01*
X168043100Y-114815853D01*
X168182481Y-114908985D01*
X168301015Y-115027519D01*
X168394147Y-115166900D01*
X168458297Y-115321772D01*
X168491000Y-115486184D01*
X168491000Y-115653816D01*
X168458297Y-115818228D01*
X168394147Y-115973100D01*
X168301015Y-116112481D01*
X168182481Y-116231015D01*
X168043100Y-116324147D01*
X167888228Y-116388297D01*
X167723816Y-116421000D01*
X167556184Y-116421000D01*
X167391772Y-116388297D01*
X167236900Y-116324147D01*
X167097519Y-116231015D01*
X166978985Y-116112481D01*
X166885853Y-115973100D01*
X166821703Y-115818228D01*
X166789000Y-115653816D01*
X166789000Y-115486184D01*
X166821703Y-115321772D01*
X166885853Y-115166900D01*
X166978985Y-115027519D01*
X167097519Y-114908985D01*
X167236900Y-114815853D01*
X167391772Y-114751703D01*
X167556184Y-114719000D01*
X167723816Y-114719000D01*
X167888228Y-114751703D01*
G37*
G36*
X170428228Y-114751703D02*
G01*
X170583100Y-114815853D01*
X170722481Y-114908985D01*
X170841015Y-115027519D01*
X170934147Y-115166900D01*
X170998297Y-115321772D01*
X171031000Y-115486184D01*
X171031000Y-115653816D01*
X170998297Y-115818228D01*
X170934147Y-115973100D01*
X170841015Y-116112481D01*
X170722481Y-116231015D01*
X170583100Y-116324147D01*
X170428228Y-116388297D01*
X170263816Y-116421000D01*
X170096184Y-116421000D01*
X169931772Y-116388297D01*
X169776900Y-116324147D01*
X169637519Y-116231015D01*
X169518985Y-116112481D01*
X169425853Y-115973100D01*
X169361703Y-115818228D01*
X169329000Y-115653816D01*
X169329000Y-115486184D01*
X169361703Y-115321772D01*
X169425853Y-115166900D01*
X169518985Y-115027519D01*
X169637519Y-114908985D01*
X169776900Y-114815853D01*
X169931772Y-114751703D01*
X170096184Y-114719000D01*
X170263816Y-114719000D01*
X170428228Y-114751703D01*
G37*
G36*
X175508228Y-114751703D02*
G01*
X175663100Y-114815853D01*
X175802481Y-114908985D01*
X175921015Y-115027519D01*
X176014147Y-115166900D01*
X176078297Y-115321772D01*
X176111000Y-115486184D01*
X176111000Y-115653816D01*
X176078297Y-115818228D01*
X176014147Y-115973100D01*
X175921015Y-116112481D01*
X175802481Y-116231015D01*
X175663100Y-116324147D01*
X175508228Y-116388297D01*
X175343816Y-116421000D01*
X175176184Y-116421000D01*
X175011772Y-116388297D01*
X174856900Y-116324147D01*
X174717519Y-116231015D01*
X174598985Y-116112481D01*
X174505853Y-115973100D01*
X174441703Y-115818228D01*
X174409000Y-115653816D01*
X174409000Y-115486184D01*
X174441703Y-115321772D01*
X174505853Y-115166900D01*
X174598985Y-115027519D01*
X174717519Y-114908985D01*
X174856900Y-114815853D01*
X175011772Y-114751703D01*
X175176184Y-114719000D01*
X175343816Y-114719000D01*
X175508228Y-114751703D01*
G37*
G36*
X155188228Y-114751703D02*
G01*
X155343100Y-114815853D01*
X155482481Y-114908985D01*
X155601015Y-115027519D01*
X155694147Y-115166900D01*
X155758297Y-115321772D01*
X155791000Y-115486184D01*
X155791000Y-115653816D01*
X155758297Y-115818228D01*
X155694147Y-115973100D01*
X155601015Y-116112481D01*
X155482481Y-116231015D01*
X155343100Y-116324147D01*
X155188228Y-116388297D01*
X155023816Y-116421000D01*
X154856184Y-116421000D01*
X154691772Y-116388297D01*
X154536900Y-116324147D01*
X154397519Y-116231015D01*
X154278985Y-116112481D01*
X154185853Y-115973100D01*
X154121703Y-115818228D01*
X154089000Y-115653816D01*
X154089000Y-115486184D01*
X154121703Y-115321772D01*
X154185853Y-115166900D01*
X154278985Y-115027519D01*
X154397519Y-114908985D01*
X154536900Y-114815853D01*
X154691772Y-114751703D01*
X154856184Y-114719000D01*
X155023816Y-114719000D01*
X155188228Y-114751703D01*
G37*
G36*
X149586564Y-108059389D02*
G01*
X149777833Y-108138615D01*
X149777835Y-108138616D01*
X149949973Y-108253635D01*
X150096365Y-108400027D01*
X150211385Y-108572167D01*
X150290611Y-108763436D01*
X150331000Y-108966484D01*
X150331000Y-109173516D01*
X150290611Y-109376564D01*
X150211385Y-109567833D01*
X150211384Y-109567835D01*
X150096365Y-109739973D01*
X149949973Y-109886365D01*
X149777835Y-110001384D01*
X149777834Y-110001385D01*
X149777833Y-110001385D01*
X149586564Y-110080611D01*
X149383516Y-110121000D01*
X149176484Y-110121000D01*
X148973436Y-110080611D01*
X148782167Y-110001385D01*
X148782166Y-110001385D01*
X148782165Y-110001384D01*
X148610027Y-109886365D01*
X148463635Y-109739973D01*
X148348616Y-109567835D01*
X148348615Y-109567833D01*
X148269389Y-109376564D01*
X148229000Y-109173516D01*
X148229000Y-108966484D01*
X148269389Y-108763436D01*
X148348615Y-108572167D01*
X148463635Y-108400027D01*
X148610027Y-108253635D01*
X148782165Y-108138616D01*
X148782167Y-108138615D01*
X148973436Y-108059389D01*
X149176484Y-108019000D01*
X149383516Y-108019000D01*
X149586564Y-108059389D01*
G37*
G36*
X145086564Y-108059389D02*
G01*
X145277833Y-108138615D01*
X145277835Y-108138616D01*
X145449973Y-108253635D01*
X145596365Y-108400027D01*
X145711385Y-108572167D01*
X145790611Y-108763436D01*
X145831000Y-108966484D01*
X145831000Y-109173516D01*
X145790611Y-109376564D01*
X145711385Y-109567833D01*
X145711384Y-109567835D01*
X145596365Y-109739973D01*
X145449973Y-109886365D01*
X145277835Y-110001384D01*
X145277834Y-110001385D01*
X145277833Y-110001385D01*
X145086564Y-110080611D01*
X144883516Y-110121000D01*
X144676484Y-110121000D01*
X144473436Y-110080611D01*
X144282167Y-110001385D01*
X144282166Y-110001385D01*
X144282165Y-110001384D01*
X144110027Y-109886365D01*
X143963635Y-109739973D01*
X143848616Y-109567835D01*
X143848615Y-109567833D01*
X143769389Y-109376564D01*
X143729000Y-109173516D01*
X143729000Y-108966484D01*
X143769389Y-108763436D01*
X143848615Y-108572167D01*
X143963635Y-108400027D01*
X144110027Y-108253635D01*
X144282165Y-108138616D01*
X144282167Y-108138615D01*
X144473436Y-108059389D01*
X144676484Y-108019000D01*
X144883516Y-108019000D01*
X145086564Y-108059389D01*
G37*
M02*
