%FSLAX45Y45*%
G04 Gerber Fmt 4.5, Leading zero omitted, Abs format (unit mm)*
G04 Created by KiCad (PCBNEW 5.1.5+dfsg1-2build2) date 2021-01-23 00:34:51*
%MOMM*%
%LPD*%
G04 APERTURE LIST*
%TA.AperFunction,Profile*%
%ADD10C,0.050000*%
%TD*%
%ADD11C,0.200000*%
%ADD12C,0.300000*%
G04 APERTURE END LIST*
D10*
X14097000Y-10033000D02*
X14097000Y-11938000D01*
X17780000Y-10033000D02*
X14097000Y-10033000D01*
X17780000Y-13716000D02*
X17780000Y-10033000D01*
X14097000Y-13716000D02*
X17780000Y-13716000D01*
X14097000Y-13462000D02*
X14097000Y-13716000D01*
X14351000Y-13208000D02*
X14097000Y-13462000D01*
X14351000Y-12192000D02*
X14351000Y-13208000D01*
X14097000Y-11938000D02*
X14351000Y-12192000D01*
D11*
D12*
X14380928Y-14184214D02*
X14380928Y-13884214D01*
X14452357Y-13884214D01*
X14495214Y-13898500D01*
X14523786Y-13927071D01*
X14538071Y-13955643D01*
X14552357Y-14012786D01*
X14552357Y-14055643D01*
X14538071Y-14112786D01*
X14523786Y-14141357D01*
X14495214Y-14169929D01*
X14452357Y-14184214D01*
X14380928Y-14184214D01*
X14680928Y-14184214D02*
X14680928Y-13984214D01*
X14680928Y-14041357D02*
X14695214Y-14012786D01*
X14709500Y-13998500D01*
X14738071Y-13984214D01*
X14766643Y-13984214D01*
X14866643Y-14184214D02*
X14866643Y-13984214D01*
X14866643Y-13884214D02*
X14852357Y-13898500D01*
X14866643Y-13912786D01*
X14880928Y-13898500D01*
X14866643Y-13884214D01*
X14866643Y-13912786D01*
X15052357Y-14184214D02*
X15023786Y-14169929D01*
X15009500Y-14141357D01*
X15009500Y-13884214D01*
X15209500Y-14184214D02*
X15180928Y-14169929D01*
X15166643Y-14141357D01*
X15166643Y-13884214D01*
X15552357Y-14184214D02*
X15552357Y-13884214D01*
X15652357Y-14098500D01*
X15752357Y-13884214D01*
X15752357Y-14184214D01*
X16023786Y-14184214D02*
X16023786Y-14027071D01*
X16009500Y-13998500D01*
X15980928Y-13984214D01*
X15923786Y-13984214D01*
X15895214Y-13998500D01*
X16023786Y-14169929D02*
X15995214Y-14184214D01*
X15923786Y-14184214D01*
X15895214Y-14169929D01*
X15880928Y-14141357D01*
X15880928Y-14112786D01*
X15895214Y-14084214D01*
X15923786Y-14069929D01*
X15995214Y-14069929D01*
X16023786Y-14055643D01*
X16166643Y-13984214D02*
X16166643Y-14284214D01*
X16166643Y-13998500D02*
X16195214Y-13984214D01*
X16252357Y-13984214D01*
X16280928Y-13998500D01*
X16295214Y-14012786D01*
X16309500Y-14041357D01*
X16309500Y-14127071D01*
X16295214Y-14155643D01*
X16280928Y-14169929D01*
X16252357Y-14184214D01*
X16195214Y-14184214D01*
X16166643Y-14169929D01*
X16438071Y-14155643D02*
X16452357Y-14169929D01*
X16438071Y-14184214D01*
X16423786Y-14169929D01*
X16438071Y-14155643D01*
X16438071Y-14184214D01*
X16438071Y-13998500D02*
X16452357Y-14012786D01*
X16438071Y-14027071D01*
X16423786Y-14012786D01*
X16438071Y-13998500D01*
X16438071Y-14027071D01*
M02*
