G04 #@! TF.GenerationSoftware,KiCad,Pcbnew,5.1.5+dfsg1-2build2*
G04 #@! TF.CreationDate,2021-01-23T00:16:09+01:00*
G04 #@! TF.ProjectId,edtracker,65647472-6163-46b6-9572-2e6b69636164,rev?*
G04 #@! TF.SameCoordinates,Original*
G04 #@! TF.FileFunction,Copper,L2,Bot*
G04 #@! TF.FilePolarity,Positive*
%FSLAX46Y46*%
G04 Gerber Fmt 4.6, Leading zero omitted, Abs format (unit mm)*
G04 Created by KiCad (PCBNEW 5.1.5+dfsg1-2build2) date 2021-01-23 00:16:09*
%MOMM*%
%LPD*%
G04 APERTURE LIST*
%ADD10C,2.000000*%
%ADD11C,1.879600*%
%ADD12C,1.600000*%
%ADD13R,1.600000X1.600000*%
%ADD14C,0.254000*%
G04 APERTURE END LIST*
D10*
X144780000Y-109070000D03*
X149280000Y-109070000D03*
X144780000Y-115570000D03*
X149280000Y-115570000D03*
D11*
X147320000Y-119380000D03*
X149860000Y-119380000D03*
X152400000Y-119380000D03*
X154940000Y-119380000D03*
X157480000Y-119380000D03*
X160020000Y-119380000D03*
X162560000Y-119380000D03*
X165100000Y-119380000D03*
X167640000Y-119380000D03*
X170180000Y-119380000D03*
X172720000Y-119380000D03*
X175260000Y-119380000D03*
X175260000Y-134620000D03*
X172720000Y-134620000D03*
X170180000Y-134620000D03*
X167640000Y-134620000D03*
X165100000Y-134620000D03*
X162560000Y-134620000D03*
X160020000Y-134620000D03*
X157480000Y-134620000D03*
X154940000Y-134620000D03*
X152400000Y-134620000D03*
X149860000Y-134620000D03*
X147320000Y-134620000D03*
D12*
X175260000Y-115570000D03*
X172720000Y-115570000D03*
X170180000Y-115570000D03*
X167640000Y-115570000D03*
X165100000Y-115570000D03*
X162560000Y-115570000D03*
X160020000Y-115570000D03*
X157480000Y-115570000D03*
X154940000Y-115570000D03*
D13*
X152400000Y-115570000D03*
D14*
G36*
X177140000Y-136500000D02*
G01*
X141630000Y-136500000D01*
X141630000Y-134893380D01*
X142058484Y-134464896D01*
X145745200Y-134464896D01*
X145745200Y-134775104D01*
X145805718Y-135079352D01*
X145924430Y-135365948D01*
X146096773Y-135623877D01*
X146316123Y-135843227D01*
X146574052Y-136015570D01*
X146860648Y-136134282D01*
X147164896Y-136194800D01*
X147475104Y-136194800D01*
X147779352Y-136134282D01*
X148065948Y-136015570D01*
X148323877Y-135843227D01*
X148543227Y-135623877D01*
X148590000Y-135553876D01*
X148636773Y-135623877D01*
X148856123Y-135843227D01*
X149114052Y-136015570D01*
X149400648Y-136134282D01*
X149704896Y-136194800D01*
X150015104Y-136194800D01*
X150319352Y-136134282D01*
X150605948Y-136015570D01*
X150863877Y-135843227D01*
X150994628Y-135712476D01*
X151487129Y-135712476D01*
X151575623Y-135970723D01*
X151854976Y-136105597D01*
X152155275Y-136183381D01*
X152464977Y-136201084D01*
X152772184Y-136158027D01*
X153065086Y-136055865D01*
X153224377Y-135970723D01*
X153312871Y-135712476D01*
X154027129Y-135712476D01*
X154115623Y-135970723D01*
X154394976Y-136105597D01*
X154695275Y-136183381D01*
X155004977Y-136201084D01*
X155312184Y-136158027D01*
X155605086Y-136055865D01*
X155764377Y-135970723D01*
X155852871Y-135712476D01*
X154940000Y-134799605D01*
X154027129Y-135712476D01*
X153312871Y-135712476D01*
X152400000Y-134799605D01*
X151487129Y-135712476D01*
X150994628Y-135712476D01*
X151083227Y-135623877D01*
X151174495Y-135487286D01*
X151307524Y-135532871D01*
X152220395Y-134620000D01*
X152579605Y-134620000D01*
X153492476Y-135532871D01*
X153670000Y-135472039D01*
X153847524Y-135532871D01*
X154760395Y-134620000D01*
X155119605Y-134620000D01*
X156032476Y-135532871D01*
X156165505Y-135487286D01*
X156256773Y-135623877D01*
X156476123Y-135843227D01*
X156734052Y-136015570D01*
X157020648Y-136134282D01*
X157324896Y-136194800D01*
X157635104Y-136194800D01*
X157939352Y-136134282D01*
X158225948Y-136015570D01*
X158483877Y-135843227D01*
X158703227Y-135623877D01*
X158750000Y-135553876D01*
X158796773Y-135623877D01*
X159016123Y-135843227D01*
X159274052Y-136015570D01*
X159560648Y-136134282D01*
X159864896Y-136194800D01*
X160175104Y-136194800D01*
X160479352Y-136134282D01*
X160765948Y-136015570D01*
X161023877Y-135843227D01*
X161243227Y-135623877D01*
X161290000Y-135553876D01*
X161336773Y-135623877D01*
X161556123Y-135843227D01*
X161814052Y-136015570D01*
X162100648Y-136134282D01*
X162404896Y-136194800D01*
X162715104Y-136194800D01*
X163019352Y-136134282D01*
X163305948Y-136015570D01*
X163563877Y-135843227D01*
X163783227Y-135623877D01*
X163830000Y-135553876D01*
X163876773Y-135623877D01*
X164096123Y-135843227D01*
X164354052Y-136015570D01*
X164640648Y-136134282D01*
X164944896Y-136194800D01*
X165255104Y-136194800D01*
X165559352Y-136134282D01*
X165845948Y-136015570D01*
X166103877Y-135843227D01*
X166323227Y-135623877D01*
X166370000Y-135553876D01*
X166416773Y-135623877D01*
X166636123Y-135843227D01*
X166894052Y-136015570D01*
X167180648Y-136134282D01*
X167484896Y-136194800D01*
X167795104Y-136194800D01*
X168099352Y-136134282D01*
X168385948Y-136015570D01*
X168643877Y-135843227D01*
X168863227Y-135623877D01*
X168910000Y-135553876D01*
X168956773Y-135623877D01*
X169176123Y-135843227D01*
X169434052Y-136015570D01*
X169720648Y-136134282D01*
X170024896Y-136194800D01*
X170335104Y-136194800D01*
X170639352Y-136134282D01*
X170925948Y-136015570D01*
X171183877Y-135843227D01*
X171403227Y-135623877D01*
X171450000Y-135553876D01*
X171496773Y-135623877D01*
X171716123Y-135843227D01*
X171974052Y-136015570D01*
X172260648Y-136134282D01*
X172564896Y-136194800D01*
X172875104Y-136194800D01*
X173179352Y-136134282D01*
X173465948Y-136015570D01*
X173723877Y-135843227D01*
X173943227Y-135623877D01*
X173990000Y-135553876D01*
X174036773Y-135623877D01*
X174256123Y-135843227D01*
X174514052Y-136015570D01*
X174800648Y-136134282D01*
X175104896Y-136194800D01*
X175415104Y-136194800D01*
X175719352Y-136134282D01*
X176005948Y-136015570D01*
X176263877Y-135843227D01*
X176483227Y-135623877D01*
X176655570Y-135365948D01*
X176774282Y-135079352D01*
X176834800Y-134775104D01*
X176834800Y-134464896D01*
X176774282Y-134160648D01*
X176655570Y-133874052D01*
X176483227Y-133616123D01*
X176263877Y-133396773D01*
X176005948Y-133224430D01*
X175719352Y-133105718D01*
X175415104Y-133045200D01*
X175104896Y-133045200D01*
X174800648Y-133105718D01*
X174514052Y-133224430D01*
X174256123Y-133396773D01*
X174036773Y-133616123D01*
X173990000Y-133686124D01*
X173943227Y-133616123D01*
X173723877Y-133396773D01*
X173465948Y-133224430D01*
X173179352Y-133105718D01*
X172875104Y-133045200D01*
X172564896Y-133045200D01*
X172260648Y-133105718D01*
X171974052Y-133224430D01*
X171716123Y-133396773D01*
X171496773Y-133616123D01*
X171450000Y-133686124D01*
X171403227Y-133616123D01*
X171183877Y-133396773D01*
X170925948Y-133224430D01*
X170639352Y-133105718D01*
X170335104Y-133045200D01*
X170024896Y-133045200D01*
X169720648Y-133105718D01*
X169434052Y-133224430D01*
X169176123Y-133396773D01*
X168956773Y-133616123D01*
X168910000Y-133686124D01*
X168863227Y-133616123D01*
X168643877Y-133396773D01*
X168385948Y-133224430D01*
X168099352Y-133105718D01*
X167795104Y-133045200D01*
X167484896Y-133045200D01*
X167180648Y-133105718D01*
X166894052Y-133224430D01*
X166636123Y-133396773D01*
X166416773Y-133616123D01*
X166370000Y-133686124D01*
X166323227Y-133616123D01*
X166103877Y-133396773D01*
X165845948Y-133224430D01*
X165559352Y-133105718D01*
X165255104Y-133045200D01*
X164944896Y-133045200D01*
X164640648Y-133105718D01*
X164354052Y-133224430D01*
X164096123Y-133396773D01*
X163876773Y-133616123D01*
X163830000Y-133686124D01*
X163783227Y-133616123D01*
X163563877Y-133396773D01*
X163305948Y-133224430D01*
X163019352Y-133105718D01*
X162715104Y-133045200D01*
X162404896Y-133045200D01*
X162100648Y-133105718D01*
X161814052Y-133224430D01*
X161556123Y-133396773D01*
X161336773Y-133616123D01*
X161290000Y-133686124D01*
X161243227Y-133616123D01*
X161023877Y-133396773D01*
X160765948Y-133224430D01*
X160479352Y-133105718D01*
X160175104Y-133045200D01*
X159864896Y-133045200D01*
X159560648Y-133105718D01*
X159274052Y-133224430D01*
X159016123Y-133396773D01*
X158796773Y-133616123D01*
X158750000Y-133686124D01*
X158703227Y-133616123D01*
X158483877Y-133396773D01*
X158225948Y-133224430D01*
X157939352Y-133105718D01*
X157635104Y-133045200D01*
X157324896Y-133045200D01*
X157020648Y-133105718D01*
X156734052Y-133224430D01*
X156476123Y-133396773D01*
X156256773Y-133616123D01*
X156165505Y-133752714D01*
X156032476Y-133707129D01*
X155119605Y-134620000D01*
X154760395Y-134620000D01*
X153847524Y-133707129D01*
X153670000Y-133767961D01*
X153492476Y-133707129D01*
X152579605Y-134620000D01*
X152220395Y-134620000D01*
X151307524Y-133707129D01*
X151174495Y-133752714D01*
X151083227Y-133616123D01*
X150994628Y-133527524D01*
X151487129Y-133527524D01*
X152400000Y-134440395D01*
X153312871Y-133527524D01*
X154027129Y-133527524D01*
X154940000Y-134440395D01*
X155852871Y-133527524D01*
X155764377Y-133269277D01*
X155485024Y-133134403D01*
X155184725Y-133056619D01*
X154875023Y-133038916D01*
X154567816Y-133081973D01*
X154274914Y-133184135D01*
X154115623Y-133269277D01*
X154027129Y-133527524D01*
X153312871Y-133527524D01*
X153224377Y-133269277D01*
X152945024Y-133134403D01*
X152644725Y-133056619D01*
X152335023Y-133038916D01*
X152027816Y-133081973D01*
X151734914Y-133184135D01*
X151575623Y-133269277D01*
X151487129Y-133527524D01*
X150994628Y-133527524D01*
X150863877Y-133396773D01*
X150605948Y-133224430D01*
X150319352Y-133105718D01*
X150015104Y-133045200D01*
X149704896Y-133045200D01*
X149400648Y-133105718D01*
X149114052Y-133224430D01*
X148856123Y-133396773D01*
X148636773Y-133616123D01*
X148590000Y-133686124D01*
X148543227Y-133616123D01*
X148323877Y-133396773D01*
X148065948Y-133224430D01*
X147779352Y-133105718D01*
X147475104Y-133045200D01*
X147164896Y-133045200D01*
X146860648Y-133105718D01*
X146574052Y-133224430D01*
X146316123Y-133396773D01*
X146096773Y-133616123D01*
X145924430Y-133874052D01*
X145805718Y-134160648D01*
X145745200Y-134464896D01*
X142058484Y-134464896D01*
X143953769Y-132569612D01*
X143978948Y-132548948D01*
X144061425Y-132448450D01*
X144122710Y-132333793D01*
X144160450Y-132209383D01*
X144170000Y-132112419D01*
X144170000Y-132112410D01*
X144173192Y-132080001D01*
X144170000Y-132047592D01*
X144170000Y-121952408D01*
X144173192Y-121919999D01*
X144170000Y-121887590D01*
X144170000Y-121887581D01*
X144160450Y-121790617D01*
X144122710Y-121666207D01*
X144061425Y-121551550D01*
X143978948Y-121451052D01*
X143953770Y-121430389D01*
X141748277Y-119224896D01*
X145745200Y-119224896D01*
X145745200Y-119535104D01*
X145805718Y-119839352D01*
X145924430Y-120125948D01*
X146096773Y-120383877D01*
X146316123Y-120603227D01*
X146574052Y-120775570D01*
X146860648Y-120894282D01*
X147164896Y-120954800D01*
X147475104Y-120954800D01*
X147779352Y-120894282D01*
X148065948Y-120775570D01*
X148323877Y-120603227D01*
X148454628Y-120472476D01*
X148947129Y-120472476D01*
X149035623Y-120730723D01*
X149314976Y-120865597D01*
X149615275Y-120943381D01*
X149924977Y-120961084D01*
X150232184Y-120918027D01*
X150525086Y-120815865D01*
X150684377Y-120730723D01*
X150772871Y-120472476D01*
X149860000Y-119559605D01*
X148947129Y-120472476D01*
X148454628Y-120472476D01*
X148543227Y-120383877D01*
X148634495Y-120247286D01*
X148767524Y-120292871D01*
X149680395Y-119380000D01*
X150039605Y-119380000D01*
X150952476Y-120292871D01*
X151085505Y-120247286D01*
X151176773Y-120383877D01*
X151396123Y-120603227D01*
X151654052Y-120775570D01*
X151940648Y-120894282D01*
X152244896Y-120954800D01*
X152555104Y-120954800D01*
X152859352Y-120894282D01*
X153145948Y-120775570D01*
X153403877Y-120603227D01*
X153623227Y-120383877D01*
X153670000Y-120313876D01*
X153716773Y-120383877D01*
X153936123Y-120603227D01*
X154194052Y-120775570D01*
X154480648Y-120894282D01*
X154784896Y-120954800D01*
X155095104Y-120954800D01*
X155399352Y-120894282D01*
X155685948Y-120775570D01*
X155943877Y-120603227D01*
X156163227Y-120383877D01*
X156210000Y-120313876D01*
X156256773Y-120383877D01*
X156476123Y-120603227D01*
X156734052Y-120775570D01*
X157020648Y-120894282D01*
X157324896Y-120954800D01*
X157635104Y-120954800D01*
X157939352Y-120894282D01*
X158225948Y-120775570D01*
X158483877Y-120603227D01*
X158703227Y-120383877D01*
X158750000Y-120313876D01*
X158796773Y-120383877D01*
X159016123Y-120603227D01*
X159274052Y-120775570D01*
X159560648Y-120894282D01*
X159864896Y-120954800D01*
X160175104Y-120954800D01*
X160479352Y-120894282D01*
X160765948Y-120775570D01*
X161023877Y-120603227D01*
X161243227Y-120383877D01*
X161290000Y-120313876D01*
X161336773Y-120383877D01*
X161556123Y-120603227D01*
X161814052Y-120775570D01*
X162100648Y-120894282D01*
X162404896Y-120954800D01*
X162715104Y-120954800D01*
X163019352Y-120894282D01*
X163305948Y-120775570D01*
X163563877Y-120603227D01*
X163783227Y-120383877D01*
X163830000Y-120313876D01*
X163876773Y-120383877D01*
X164096123Y-120603227D01*
X164354052Y-120775570D01*
X164640648Y-120894282D01*
X164944896Y-120954800D01*
X165255104Y-120954800D01*
X165559352Y-120894282D01*
X165845948Y-120775570D01*
X166103877Y-120603227D01*
X166323227Y-120383877D01*
X166370000Y-120313876D01*
X166416773Y-120383877D01*
X166636123Y-120603227D01*
X166894052Y-120775570D01*
X167180648Y-120894282D01*
X167484896Y-120954800D01*
X167795104Y-120954800D01*
X168099352Y-120894282D01*
X168385948Y-120775570D01*
X168643877Y-120603227D01*
X168863227Y-120383877D01*
X168910000Y-120313876D01*
X168956773Y-120383877D01*
X169176123Y-120603227D01*
X169434052Y-120775570D01*
X169720648Y-120894282D01*
X170024896Y-120954800D01*
X170335104Y-120954800D01*
X170639352Y-120894282D01*
X170925948Y-120775570D01*
X171183877Y-120603227D01*
X171403227Y-120383877D01*
X171450000Y-120313876D01*
X171496773Y-120383877D01*
X171716123Y-120603227D01*
X171974052Y-120775570D01*
X172260648Y-120894282D01*
X172564896Y-120954800D01*
X172875104Y-120954800D01*
X173179352Y-120894282D01*
X173465948Y-120775570D01*
X173723877Y-120603227D01*
X173943227Y-120383877D01*
X173990000Y-120313876D01*
X174036773Y-120383877D01*
X174256123Y-120603227D01*
X174514052Y-120775570D01*
X174800648Y-120894282D01*
X175104896Y-120954800D01*
X175415104Y-120954800D01*
X175719352Y-120894282D01*
X176005948Y-120775570D01*
X176263877Y-120603227D01*
X176483227Y-120383877D01*
X176655570Y-120125948D01*
X176774282Y-119839352D01*
X176834800Y-119535104D01*
X176834800Y-119224896D01*
X176774282Y-118920648D01*
X176655570Y-118634052D01*
X176483227Y-118376123D01*
X176263877Y-118156773D01*
X176005948Y-117984430D01*
X175719352Y-117865718D01*
X175415104Y-117805200D01*
X175104896Y-117805200D01*
X174800648Y-117865718D01*
X174514052Y-117984430D01*
X174256123Y-118156773D01*
X174036773Y-118376123D01*
X173990000Y-118446124D01*
X173943227Y-118376123D01*
X173723877Y-118156773D01*
X173465948Y-117984430D01*
X173179352Y-117865718D01*
X172875104Y-117805200D01*
X172564896Y-117805200D01*
X172260648Y-117865718D01*
X171974052Y-117984430D01*
X171716123Y-118156773D01*
X171496773Y-118376123D01*
X171450000Y-118446124D01*
X171403227Y-118376123D01*
X171183877Y-118156773D01*
X170925948Y-117984430D01*
X170639352Y-117865718D01*
X170335104Y-117805200D01*
X170024896Y-117805200D01*
X169720648Y-117865718D01*
X169434052Y-117984430D01*
X169176123Y-118156773D01*
X168956773Y-118376123D01*
X168910000Y-118446124D01*
X168863227Y-118376123D01*
X168643877Y-118156773D01*
X168385948Y-117984430D01*
X168099352Y-117865718D01*
X167795104Y-117805200D01*
X167484896Y-117805200D01*
X167180648Y-117865718D01*
X166894052Y-117984430D01*
X166636123Y-118156773D01*
X166416773Y-118376123D01*
X166370000Y-118446124D01*
X166323227Y-118376123D01*
X166103877Y-118156773D01*
X165845948Y-117984430D01*
X165559352Y-117865718D01*
X165255104Y-117805200D01*
X164944896Y-117805200D01*
X164640648Y-117865718D01*
X164354052Y-117984430D01*
X164096123Y-118156773D01*
X163876773Y-118376123D01*
X163830000Y-118446124D01*
X163783227Y-118376123D01*
X163563877Y-118156773D01*
X163305948Y-117984430D01*
X163019352Y-117865718D01*
X162715104Y-117805200D01*
X162404896Y-117805200D01*
X162100648Y-117865718D01*
X161814052Y-117984430D01*
X161556123Y-118156773D01*
X161336773Y-118376123D01*
X161290000Y-118446124D01*
X161243227Y-118376123D01*
X161023877Y-118156773D01*
X160765948Y-117984430D01*
X160479352Y-117865718D01*
X160175104Y-117805200D01*
X159864896Y-117805200D01*
X159560648Y-117865718D01*
X159274052Y-117984430D01*
X159016123Y-118156773D01*
X158796773Y-118376123D01*
X158750000Y-118446124D01*
X158703227Y-118376123D01*
X158483877Y-118156773D01*
X158225948Y-117984430D01*
X157939352Y-117865718D01*
X157635104Y-117805200D01*
X157324896Y-117805200D01*
X157020648Y-117865718D01*
X156734052Y-117984430D01*
X156476123Y-118156773D01*
X156256773Y-118376123D01*
X156210000Y-118446124D01*
X156163227Y-118376123D01*
X155943877Y-118156773D01*
X155685948Y-117984430D01*
X155399352Y-117865718D01*
X155095104Y-117805200D01*
X154784896Y-117805200D01*
X154480648Y-117865718D01*
X154194052Y-117984430D01*
X153936123Y-118156773D01*
X153716773Y-118376123D01*
X153670000Y-118446124D01*
X153623227Y-118376123D01*
X153403877Y-118156773D01*
X153145948Y-117984430D01*
X152859352Y-117865718D01*
X152555104Y-117805200D01*
X152244896Y-117805200D01*
X151940648Y-117865718D01*
X151654052Y-117984430D01*
X151396123Y-118156773D01*
X151176773Y-118376123D01*
X151085505Y-118512714D01*
X150952476Y-118467129D01*
X150039605Y-119380000D01*
X149680395Y-119380000D01*
X148767524Y-118467129D01*
X148634495Y-118512714D01*
X148543227Y-118376123D01*
X148454628Y-118287524D01*
X148947129Y-118287524D01*
X149860000Y-119200395D01*
X150772871Y-118287524D01*
X150684377Y-118029277D01*
X150405024Y-117894403D01*
X150104725Y-117816619D01*
X149795023Y-117798916D01*
X149487816Y-117841973D01*
X149194914Y-117944135D01*
X149035623Y-118029277D01*
X148947129Y-118287524D01*
X148454628Y-118287524D01*
X148323877Y-118156773D01*
X148065948Y-117984430D01*
X147779352Y-117865718D01*
X147475104Y-117805200D01*
X147164896Y-117805200D01*
X146860648Y-117865718D01*
X146574052Y-117984430D01*
X146316123Y-118156773D01*
X146096773Y-118376123D01*
X145924430Y-118634052D01*
X145805718Y-118920648D01*
X145745200Y-119224896D01*
X141748277Y-119224896D01*
X141630000Y-119106620D01*
X141630000Y-116705413D01*
X143824192Y-116705413D01*
X143919956Y-116969814D01*
X144209571Y-117110704D01*
X144521108Y-117192384D01*
X144842595Y-117211718D01*
X145161675Y-117167961D01*
X145466088Y-117062795D01*
X145640044Y-116969814D01*
X145735808Y-116705413D01*
X144780000Y-115749605D01*
X143824192Y-116705413D01*
X141630000Y-116705413D01*
X141630000Y-115632595D01*
X143138282Y-115632595D01*
X143182039Y-115951675D01*
X143287205Y-116256088D01*
X143380186Y-116430044D01*
X143644587Y-116525808D01*
X144600395Y-115570000D01*
X144959605Y-115570000D01*
X145915413Y-116525808D01*
X146179814Y-116430044D01*
X146320704Y-116140429D01*
X146402384Y-115828892D01*
X146421718Y-115507405D01*
X146408219Y-115408967D01*
X147645000Y-115408967D01*
X147645000Y-115731033D01*
X147707832Y-116046912D01*
X147831082Y-116344463D01*
X148010013Y-116612252D01*
X148237748Y-116839987D01*
X148505537Y-117018918D01*
X148803088Y-117142168D01*
X149118967Y-117205000D01*
X149441033Y-117205000D01*
X149756912Y-117142168D01*
X150054463Y-117018918D01*
X150322252Y-116839987D01*
X150549987Y-116612252D01*
X150728918Y-116344463D01*
X150852168Y-116046912D01*
X150915000Y-115731033D01*
X150915000Y-115408967D01*
X150852168Y-115093088D01*
X150728918Y-114795537D01*
X150711855Y-114770000D01*
X150961928Y-114770000D01*
X150961928Y-116370000D01*
X150974188Y-116494482D01*
X151010498Y-116614180D01*
X151069463Y-116724494D01*
X151148815Y-116821185D01*
X151245506Y-116900537D01*
X151355820Y-116959502D01*
X151475518Y-116995812D01*
X151600000Y-117008072D01*
X153200000Y-117008072D01*
X153324482Y-116995812D01*
X153444180Y-116959502D01*
X153554494Y-116900537D01*
X153651185Y-116821185D01*
X153730537Y-116724494D01*
X153789502Y-116614180D01*
X153805117Y-116562702D01*
X154126903Y-116562702D01*
X154198486Y-116806671D01*
X154453996Y-116927571D01*
X154728184Y-116996300D01*
X155010512Y-117010217D01*
X155290130Y-116968787D01*
X155556292Y-116873603D01*
X155681514Y-116806671D01*
X155753097Y-116562702D01*
X154940000Y-115749605D01*
X154126903Y-116562702D01*
X153805117Y-116562702D01*
X153825812Y-116494482D01*
X153838072Y-116370000D01*
X153838072Y-116351049D01*
X153947298Y-116383097D01*
X154760395Y-115570000D01*
X155119605Y-115570000D01*
X155932702Y-116383097D01*
X156176671Y-116311514D01*
X156207194Y-116247008D01*
X156208320Y-116249727D01*
X156365363Y-116484759D01*
X156565241Y-116684637D01*
X156800273Y-116841680D01*
X157061426Y-116949853D01*
X157338665Y-117005000D01*
X157621335Y-117005000D01*
X157898574Y-116949853D01*
X158159727Y-116841680D01*
X158394759Y-116684637D01*
X158594637Y-116484759D01*
X158750000Y-116252241D01*
X158905363Y-116484759D01*
X159105241Y-116684637D01*
X159340273Y-116841680D01*
X159601426Y-116949853D01*
X159878665Y-117005000D01*
X160161335Y-117005000D01*
X160438574Y-116949853D01*
X160699727Y-116841680D01*
X160934759Y-116684637D01*
X161134637Y-116484759D01*
X161290000Y-116252241D01*
X161445363Y-116484759D01*
X161645241Y-116684637D01*
X161880273Y-116841680D01*
X162141426Y-116949853D01*
X162418665Y-117005000D01*
X162701335Y-117005000D01*
X162978574Y-116949853D01*
X163239727Y-116841680D01*
X163474759Y-116684637D01*
X163674637Y-116484759D01*
X163830000Y-116252241D01*
X163985363Y-116484759D01*
X164185241Y-116684637D01*
X164420273Y-116841680D01*
X164681426Y-116949853D01*
X164958665Y-117005000D01*
X165241335Y-117005000D01*
X165518574Y-116949853D01*
X165779727Y-116841680D01*
X166014759Y-116684637D01*
X166136694Y-116562702D01*
X166826903Y-116562702D01*
X166898486Y-116806671D01*
X167153996Y-116927571D01*
X167428184Y-116996300D01*
X167710512Y-117010217D01*
X167990130Y-116968787D01*
X168256292Y-116873603D01*
X168381514Y-116806671D01*
X168453097Y-116562702D01*
X167640000Y-115749605D01*
X166826903Y-116562702D01*
X166136694Y-116562702D01*
X166214637Y-116484759D01*
X166370915Y-116250872D01*
X166403329Y-116311514D01*
X166647298Y-116383097D01*
X167460395Y-115570000D01*
X167819605Y-115570000D01*
X168632702Y-116383097D01*
X168876671Y-116311514D01*
X168907194Y-116247008D01*
X168908320Y-116249727D01*
X169065363Y-116484759D01*
X169265241Y-116684637D01*
X169500273Y-116841680D01*
X169761426Y-116949853D01*
X170038665Y-117005000D01*
X170321335Y-117005000D01*
X170598574Y-116949853D01*
X170859727Y-116841680D01*
X171094759Y-116684637D01*
X171294637Y-116484759D01*
X171450000Y-116252241D01*
X171605363Y-116484759D01*
X171805241Y-116684637D01*
X172040273Y-116841680D01*
X172301426Y-116949853D01*
X172578665Y-117005000D01*
X172861335Y-117005000D01*
X173138574Y-116949853D01*
X173399727Y-116841680D01*
X173634759Y-116684637D01*
X173834637Y-116484759D01*
X173990000Y-116252241D01*
X174145363Y-116484759D01*
X174345241Y-116684637D01*
X174580273Y-116841680D01*
X174841426Y-116949853D01*
X175118665Y-117005000D01*
X175401335Y-117005000D01*
X175678574Y-116949853D01*
X175939727Y-116841680D01*
X176174759Y-116684637D01*
X176374637Y-116484759D01*
X176531680Y-116249727D01*
X176639853Y-115988574D01*
X176695000Y-115711335D01*
X176695000Y-115428665D01*
X176639853Y-115151426D01*
X176531680Y-114890273D01*
X176374637Y-114655241D01*
X176174759Y-114455363D01*
X175939727Y-114298320D01*
X175678574Y-114190147D01*
X175401335Y-114135000D01*
X175118665Y-114135000D01*
X174841426Y-114190147D01*
X174580273Y-114298320D01*
X174345241Y-114455363D01*
X174145363Y-114655241D01*
X173990000Y-114887759D01*
X173834637Y-114655241D01*
X173634759Y-114455363D01*
X173399727Y-114298320D01*
X173138574Y-114190147D01*
X172861335Y-114135000D01*
X172578665Y-114135000D01*
X172301426Y-114190147D01*
X172040273Y-114298320D01*
X171805241Y-114455363D01*
X171605363Y-114655241D01*
X171450000Y-114887759D01*
X171294637Y-114655241D01*
X171094759Y-114455363D01*
X170859727Y-114298320D01*
X170598574Y-114190147D01*
X170321335Y-114135000D01*
X170038665Y-114135000D01*
X169761426Y-114190147D01*
X169500273Y-114298320D01*
X169265241Y-114455363D01*
X169065363Y-114655241D01*
X168909085Y-114889128D01*
X168876671Y-114828486D01*
X168632702Y-114756903D01*
X167819605Y-115570000D01*
X167460395Y-115570000D01*
X166647298Y-114756903D01*
X166403329Y-114828486D01*
X166372806Y-114892992D01*
X166371680Y-114890273D01*
X166214637Y-114655241D01*
X166136694Y-114577298D01*
X166826903Y-114577298D01*
X167640000Y-115390395D01*
X168453097Y-114577298D01*
X168381514Y-114333329D01*
X168126004Y-114212429D01*
X167851816Y-114143700D01*
X167569488Y-114129783D01*
X167289870Y-114171213D01*
X167023708Y-114266397D01*
X166898486Y-114333329D01*
X166826903Y-114577298D01*
X166136694Y-114577298D01*
X166014759Y-114455363D01*
X165779727Y-114298320D01*
X165518574Y-114190147D01*
X165241335Y-114135000D01*
X164958665Y-114135000D01*
X164681426Y-114190147D01*
X164420273Y-114298320D01*
X164185241Y-114455363D01*
X163985363Y-114655241D01*
X163830000Y-114887759D01*
X163674637Y-114655241D01*
X163474759Y-114455363D01*
X163239727Y-114298320D01*
X162978574Y-114190147D01*
X162701335Y-114135000D01*
X162418665Y-114135000D01*
X162141426Y-114190147D01*
X161880273Y-114298320D01*
X161645241Y-114455363D01*
X161445363Y-114655241D01*
X161290000Y-114887759D01*
X161134637Y-114655241D01*
X160934759Y-114455363D01*
X160699727Y-114298320D01*
X160438574Y-114190147D01*
X160161335Y-114135000D01*
X159878665Y-114135000D01*
X159601426Y-114190147D01*
X159340273Y-114298320D01*
X159105241Y-114455363D01*
X158905363Y-114655241D01*
X158750000Y-114887759D01*
X158594637Y-114655241D01*
X158394759Y-114455363D01*
X158159727Y-114298320D01*
X157898574Y-114190147D01*
X157621335Y-114135000D01*
X157338665Y-114135000D01*
X157061426Y-114190147D01*
X156800273Y-114298320D01*
X156565241Y-114455363D01*
X156365363Y-114655241D01*
X156209085Y-114889128D01*
X156176671Y-114828486D01*
X155932702Y-114756903D01*
X155119605Y-115570000D01*
X154760395Y-115570000D01*
X153947298Y-114756903D01*
X153838072Y-114788951D01*
X153838072Y-114770000D01*
X153825812Y-114645518D01*
X153805118Y-114577298D01*
X154126903Y-114577298D01*
X154940000Y-115390395D01*
X155753097Y-114577298D01*
X155681514Y-114333329D01*
X155426004Y-114212429D01*
X155151816Y-114143700D01*
X154869488Y-114129783D01*
X154589870Y-114171213D01*
X154323708Y-114266397D01*
X154198486Y-114333329D01*
X154126903Y-114577298D01*
X153805118Y-114577298D01*
X153789502Y-114525820D01*
X153730537Y-114415506D01*
X153651185Y-114318815D01*
X153554494Y-114239463D01*
X153444180Y-114180498D01*
X153324482Y-114144188D01*
X153200000Y-114131928D01*
X151600000Y-114131928D01*
X151475518Y-114144188D01*
X151355820Y-114180498D01*
X151245506Y-114239463D01*
X151148815Y-114318815D01*
X151069463Y-114415506D01*
X151010498Y-114525820D01*
X150974188Y-114645518D01*
X150961928Y-114770000D01*
X150711855Y-114770000D01*
X150549987Y-114527748D01*
X150322252Y-114300013D01*
X150054463Y-114121082D01*
X149756912Y-113997832D01*
X149441033Y-113935000D01*
X149118967Y-113935000D01*
X148803088Y-113997832D01*
X148505537Y-114121082D01*
X148237748Y-114300013D01*
X148010013Y-114527748D01*
X147831082Y-114795537D01*
X147707832Y-115093088D01*
X147645000Y-115408967D01*
X146408219Y-115408967D01*
X146377961Y-115188325D01*
X146272795Y-114883912D01*
X146179814Y-114709956D01*
X145915413Y-114614192D01*
X144959605Y-115570000D01*
X144600395Y-115570000D01*
X143644587Y-114614192D01*
X143380186Y-114709956D01*
X143239296Y-114999571D01*
X143157616Y-115311108D01*
X143138282Y-115632595D01*
X141630000Y-115632595D01*
X141630000Y-114434587D01*
X143824192Y-114434587D01*
X144780000Y-115390395D01*
X145735808Y-114434587D01*
X145640044Y-114170186D01*
X145350429Y-114029296D01*
X145038892Y-113947616D01*
X144717405Y-113928282D01*
X144398325Y-113972039D01*
X144093912Y-114077205D01*
X143919956Y-114170186D01*
X143824192Y-114434587D01*
X141630000Y-114434587D01*
X141630000Y-110205413D01*
X143824192Y-110205413D01*
X143919956Y-110469814D01*
X144209571Y-110610704D01*
X144521108Y-110692384D01*
X144842595Y-110711718D01*
X145161675Y-110667961D01*
X145466088Y-110562795D01*
X145640044Y-110469814D01*
X145735808Y-110205413D01*
X144780000Y-109249605D01*
X143824192Y-110205413D01*
X141630000Y-110205413D01*
X141630000Y-109132595D01*
X143138282Y-109132595D01*
X143182039Y-109451675D01*
X143287205Y-109756088D01*
X143380186Y-109930044D01*
X143644587Y-110025808D01*
X144600395Y-109070000D01*
X144959605Y-109070000D01*
X145915413Y-110025808D01*
X146179814Y-109930044D01*
X146320704Y-109640429D01*
X146402384Y-109328892D01*
X146421718Y-109007405D01*
X146408219Y-108908967D01*
X147645000Y-108908967D01*
X147645000Y-109231033D01*
X147707832Y-109546912D01*
X147831082Y-109844463D01*
X148010013Y-110112252D01*
X148237748Y-110339987D01*
X148505537Y-110518918D01*
X148803088Y-110642168D01*
X149118967Y-110705000D01*
X149441033Y-110705000D01*
X149756912Y-110642168D01*
X150054463Y-110518918D01*
X150322252Y-110339987D01*
X150549987Y-110112252D01*
X150728918Y-109844463D01*
X150852168Y-109546912D01*
X150915000Y-109231033D01*
X150915000Y-108908967D01*
X150852168Y-108593088D01*
X150728918Y-108295537D01*
X150549987Y-108027748D01*
X150322252Y-107800013D01*
X150054463Y-107621082D01*
X149756912Y-107497832D01*
X149441033Y-107435000D01*
X149118967Y-107435000D01*
X148803088Y-107497832D01*
X148505537Y-107621082D01*
X148237748Y-107800013D01*
X148010013Y-108027748D01*
X147831082Y-108295537D01*
X147707832Y-108593088D01*
X147645000Y-108908967D01*
X146408219Y-108908967D01*
X146377961Y-108688325D01*
X146272795Y-108383912D01*
X146179814Y-108209956D01*
X145915413Y-108114192D01*
X144959605Y-109070000D01*
X144600395Y-109070000D01*
X143644587Y-108114192D01*
X143380186Y-108209956D01*
X143239296Y-108499571D01*
X143157616Y-108811108D01*
X143138282Y-109132595D01*
X141630000Y-109132595D01*
X141630000Y-107934587D01*
X143824192Y-107934587D01*
X144780000Y-108890395D01*
X145735808Y-107934587D01*
X145640044Y-107670186D01*
X145350429Y-107529296D01*
X145038892Y-107447616D01*
X144717405Y-107428282D01*
X144398325Y-107472039D01*
X144093912Y-107577205D01*
X143919956Y-107670186D01*
X143824192Y-107934587D01*
X141630000Y-107934587D01*
X141630000Y-100990000D01*
X177140001Y-100990000D01*
X177140000Y-136500000D01*
G37*
X177140000Y-136500000D02*
X141630000Y-136500000D01*
X141630000Y-134893380D01*
X142058484Y-134464896D01*
X145745200Y-134464896D01*
X145745200Y-134775104D01*
X145805718Y-135079352D01*
X145924430Y-135365948D01*
X146096773Y-135623877D01*
X146316123Y-135843227D01*
X146574052Y-136015570D01*
X146860648Y-136134282D01*
X147164896Y-136194800D01*
X147475104Y-136194800D01*
X147779352Y-136134282D01*
X148065948Y-136015570D01*
X148323877Y-135843227D01*
X148543227Y-135623877D01*
X148590000Y-135553876D01*
X148636773Y-135623877D01*
X148856123Y-135843227D01*
X149114052Y-136015570D01*
X149400648Y-136134282D01*
X149704896Y-136194800D01*
X150015104Y-136194800D01*
X150319352Y-136134282D01*
X150605948Y-136015570D01*
X150863877Y-135843227D01*
X150994628Y-135712476D01*
X151487129Y-135712476D01*
X151575623Y-135970723D01*
X151854976Y-136105597D01*
X152155275Y-136183381D01*
X152464977Y-136201084D01*
X152772184Y-136158027D01*
X153065086Y-136055865D01*
X153224377Y-135970723D01*
X153312871Y-135712476D01*
X154027129Y-135712476D01*
X154115623Y-135970723D01*
X154394976Y-136105597D01*
X154695275Y-136183381D01*
X155004977Y-136201084D01*
X155312184Y-136158027D01*
X155605086Y-136055865D01*
X155764377Y-135970723D01*
X155852871Y-135712476D01*
X154940000Y-134799605D01*
X154027129Y-135712476D01*
X153312871Y-135712476D01*
X152400000Y-134799605D01*
X151487129Y-135712476D01*
X150994628Y-135712476D01*
X151083227Y-135623877D01*
X151174495Y-135487286D01*
X151307524Y-135532871D01*
X152220395Y-134620000D01*
X152579605Y-134620000D01*
X153492476Y-135532871D01*
X153670000Y-135472039D01*
X153847524Y-135532871D01*
X154760395Y-134620000D01*
X155119605Y-134620000D01*
X156032476Y-135532871D01*
X156165505Y-135487286D01*
X156256773Y-135623877D01*
X156476123Y-135843227D01*
X156734052Y-136015570D01*
X157020648Y-136134282D01*
X157324896Y-136194800D01*
X157635104Y-136194800D01*
X157939352Y-136134282D01*
X158225948Y-136015570D01*
X158483877Y-135843227D01*
X158703227Y-135623877D01*
X158750000Y-135553876D01*
X158796773Y-135623877D01*
X159016123Y-135843227D01*
X159274052Y-136015570D01*
X159560648Y-136134282D01*
X159864896Y-136194800D01*
X160175104Y-136194800D01*
X160479352Y-136134282D01*
X160765948Y-136015570D01*
X161023877Y-135843227D01*
X161243227Y-135623877D01*
X161290000Y-135553876D01*
X161336773Y-135623877D01*
X161556123Y-135843227D01*
X161814052Y-136015570D01*
X162100648Y-136134282D01*
X162404896Y-136194800D01*
X162715104Y-136194800D01*
X163019352Y-136134282D01*
X163305948Y-136015570D01*
X163563877Y-135843227D01*
X163783227Y-135623877D01*
X163830000Y-135553876D01*
X163876773Y-135623877D01*
X164096123Y-135843227D01*
X164354052Y-136015570D01*
X164640648Y-136134282D01*
X164944896Y-136194800D01*
X165255104Y-136194800D01*
X165559352Y-136134282D01*
X165845948Y-136015570D01*
X166103877Y-135843227D01*
X166323227Y-135623877D01*
X166370000Y-135553876D01*
X166416773Y-135623877D01*
X166636123Y-135843227D01*
X166894052Y-136015570D01*
X167180648Y-136134282D01*
X167484896Y-136194800D01*
X167795104Y-136194800D01*
X168099352Y-136134282D01*
X168385948Y-136015570D01*
X168643877Y-135843227D01*
X168863227Y-135623877D01*
X168910000Y-135553876D01*
X168956773Y-135623877D01*
X169176123Y-135843227D01*
X169434052Y-136015570D01*
X169720648Y-136134282D01*
X170024896Y-136194800D01*
X170335104Y-136194800D01*
X170639352Y-136134282D01*
X170925948Y-136015570D01*
X171183877Y-135843227D01*
X171403227Y-135623877D01*
X171450000Y-135553876D01*
X171496773Y-135623877D01*
X171716123Y-135843227D01*
X171974052Y-136015570D01*
X172260648Y-136134282D01*
X172564896Y-136194800D01*
X172875104Y-136194800D01*
X173179352Y-136134282D01*
X173465948Y-136015570D01*
X173723877Y-135843227D01*
X173943227Y-135623877D01*
X173990000Y-135553876D01*
X174036773Y-135623877D01*
X174256123Y-135843227D01*
X174514052Y-136015570D01*
X174800648Y-136134282D01*
X175104896Y-136194800D01*
X175415104Y-136194800D01*
X175719352Y-136134282D01*
X176005948Y-136015570D01*
X176263877Y-135843227D01*
X176483227Y-135623877D01*
X176655570Y-135365948D01*
X176774282Y-135079352D01*
X176834800Y-134775104D01*
X176834800Y-134464896D01*
X176774282Y-134160648D01*
X176655570Y-133874052D01*
X176483227Y-133616123D01*
X176263877Y-133396773D01*
X176005948Y-133224430D01*
X175719352Y-133105718D01*
X175415104Y-133045200D01*
X175104896Y-133045200D01*
X174800648Y-133105718D01*
X174514052Y-133224430D01*
X174256123Y-133396773D01*
X174036773Y-133616123D01*
X173990000Y-133686124D01*
X173943227Y-133616123D01*
X173723877Y-133396773D01*
X173465948Y-133224430D01*
X173179352Y-133105718D01*
X172875104Y-133045200D01*
X172564896Y-133045200D01*
X172260648Y-133105718D01*
X171974052Y-133224430D01*
X171716123Y-133396773D01*
X171496773Y-133616123D01*
X171450000Y-133686124D01*
X171403227Y-133616123D01*
X171183877Y-133396773D01*
X170925948Y-133224430D01*
X170639352Y-133105718D01*
X170335104Y-133045200D01*
X170024896Y-133045200D01*
X169720648Y-133105718D01*
X169434052Y-133224430D01*
X169176123Y-133396773D01*
X168956773Y-133616123D01*
X168910000Y-133686124D01*
X168863227Y-133616123D01*
X168643877Y-133396773D01*
X168385948Y-133224430D01*
X168099352Y-133105718D01*
X167795104Y-133045200D01*
X167484896Y-133045200D01*
X167180648Y-133105718D01*
X166894052Y-133224430D01*
X166636123Y-133396773D01*
X166416773Y-133616123D01*
X166370000Y-133686124D01*
X166323227Y-133616123D01*
X166103877Y-133396773D01*
X165845948Y-133224430D01*
X165559352Y-133105718D01*
X165255104Y-133045200D01*
X164944896Y-133045200D01*
X164640648Y-133105718D01*
X164354052Y-133224430D01*
X164096123Y-133396773D01*
X163876773Y-133616123D01*
X163830000Y-133686124D01*
X163783227Y-133616123D01*
X163563877Y-133396773D01*
X163305948Y-133224430D01*
X163019352Y-133105718D01*
X162715104Y-133045200D01*
X162404896Y-133045200D01*
X162100648Y-133105718D01*
X161814052Y-133224430D01*
X161556123Y-133396773D01*
X161336773Y-133616123D01*
X161290000Y-133686124D01*
X161243227Y-133616123D01*
X161023877Y-133396773D01*
X160765948Y-133224430D01*
X160479352Y-133105718D01*
X160175104Y-133045200D01*
X159864896Y-133045200D01*
X159560648Y-133105718D01*
X159274052Y-133224430D01*
X159016123Y-133396773D01*
X158796773Y-133616123D01*
X158750000Y-133686124D01*
X158703227Y-133616123D01*
X158483877Y-133396773D01*
X158225948Y-133224430D01*
X157939352Y-133105718D01*
X157635104Y-133045200D01*
X157324896Y-133045200D01*
X157020648Y-133105718D01*
X156734052Y-133224430D01*
X156476123Y-133396773D01*
X156256773Y-133616123D01*
X156165505Y-133752714D01*
X156032476Y-133707129D01*
X155119605Y-134620000D01*
X154760395Y-134620000D01*
X153847524Y-133707129D01*
X153670000Y-133767961D01*
X153492476Y-133707129D01*
X152579605Y-134620000D01*
X152220395Y-134620000D01*
X151307524Y-133707129D01*
X151174495Y-133752714D01*
X151083227Y-133616123D01*
X150994628Y-133527524D01*
X151487129Y-133527524D01*
X152400000Y-134440395D01*
X153312871Y-133527524D01*
X154027129Y-133527524D01*
X154940000Y-134440395D01*
X155852871Y-133527524D01*
X155764377Y-133269277D01*
X155485024Y-133134403D01*
X155184725Y-133056619D01*
X154875023Y-133038916D01*
X154567816Y-133081973D01*
X154274914Y-133184135D01*
X154115623Y-133269277D01*
X154027129Y-133527524D01*
X153312871Y-133527524D01*
X153224377Y-133269277D01*
X152945024Y-133134403D01*
X152644725Y-133056619D01*
X152335023Y-133038916D01*
X152027816Y-133081973D01*
X151734914Y-133184135D01*
X151575623Y-133269277D01*
X151487129Y-133527524D01*
X150994628Y-133527524D01*
X150863877Y-133396773D01*
X150605948Y-133224430D01*
X150319352Y-133105718D01*
X150015104Y-133045200D01*
X149704896Y-133045200D01*
X149400648Y-133105718D01*
X149114052Y-133224430D01*
X148856123Y-133396773D01*
X148636773Y-133616123D01*
X148590000Y-133686124D01*
X148543227Y-133616123D01*
X148323877Y-133396773D01*
X148065948Y-133224430D01*
X147779352Y-133105718D01*
X147475104Y-133045200D01*
X147164896Y-133045200D01*
X146860648Y-133105718D01*
X146574052Y-133224430D01*
X146316123Y-133396773D01*
X146096773Y-133616123D01*
X145924430Y-133874052D01*
X145805718Y-134160648D01*
X145745200Y-134464896D01*
X142058484Y-134464896D01*
X143953769Y-132569612D01*
X143978948Y-132548948D01*
X144061425Y-132448450D01*
X144122710Y-132333793D01*
X144160450Y-132209383D01*
X144170000Y-132112419D01*
X144170000Y-132112410D01*
X144173192Y-132080001D01*
X144170000Y-132047592D01*
X144170000Y-121952408D01*
X144173192Y-121919999D01*
X144170000Y-121887590D01*
X144170000Y-121887581D01*
X144160450Y-121790617D01*
X144122710Y-121666207D01*
X144061425Y-121551550D01*
X143978948Y-121451052D01*
X143953770Y-121430389D01*
X141748277Y-119224896D01*
X145745200Y-119224896D01*
X145745200Y-119535104D01*
X145805718Y-119839352D01*
X145924430Y-120125948D01*
X146096773Y-120383877D01*
X146316123Y-120603227D01*
X146574052Y-120775570D01*
X146860648Y-120894282D01*
X147164896Y-120954800D01*
X147475104Y-120954800D01*
X147779352Y-120894282D01*
X148065948Y-120775570D01*
X148323877Y-120603227D01*
X148454628Y-120472476D01*
X148947129Y-120472476D01*
X149035623Y-120730723D01*
X149314976Y-120865597D01*
X149615275Y-120943381D01*
X149924977Y-120961084D01*
X150232184Y-120918027D01*
X150525086Y-120815865D01*
X150684377Y-120730723D01*
X150772871Y-120472476D01*
X149860000Y-119559605D01*
X148947129Y-120472476D01*
X148454628Y-120472476D01*
X148543227Y-120383877D01*
X148634495Y-120247286D01*
X148767524Y-120292871D01*
X149680395Y-119380000D01*
X150039605Y-119380000D01*
X150952476Y-120292871D01*
X151085505Y-120247286D01*
X151176773Y-120383877D01*
X151396123Y-120603227D01*
X151654052Y-120775570D01*
X151940648Y-120894282D01*
X152244896Y-120954800D01*
X152555104Y-120954800D01*
X152859352Y-120894282D01*
X153145948Y-120775570D01*
X153403877Y-120603227D01*
X153623227Y-120383877D01*
X153670000Y-120313876D01*
X153716773Y-120383877D01*
X153936123Y-120603227D01*
X154194052Y-120775570D01*
X154480648Y-120894282D01*
X154784896Y-120954800D01*
X155095104Y-120954800D01*
X155399352Y-120894282D01*
X155685948Y-120775570D01*
X155943877Y-120603227D01*
X156163227Y-120383877D01*
X156210000Y-120313876D01*
X156256773Y-120383877D01*
X156476123Y-120603227D01*
X156734052Y-120775570D01*
X157020648Y-120894282D01*
X157324896Y-120954800D01*
X157635104Y-120954800D01*
X157939352Y-120894282D01*
X158225948Y-120775570D01*
X158483877Y-120603227D01*
X158703227Y-120383877D01*
X158750000Y-120313876D01*
X158796773Y-120383877D01*
X159016123Y-120603227D01*
X159274052Y-120775570D01*
X159560648Y-120894282D01*
X159864896Y-120954800D01*
X160175104Y-120954800D01*
X160479352Y-120894282D01*
X160765948Y-120775570D01*
X161023877Y-120603227D01*
X161243227Y-120383877D01*
X161290000Y-120313876D01*
X161336773Y-120383877D01*
X161556123Y-120603227D01*
X161814052Y-120775570D01*
X162100648Y-120894282D01*
X162404896Y-120954800D01*
X162715104Y-120954800D01*
X163019352Y-120894282D01*
X163305948Y-120775570D01*
X163563877Y-120603227D01*
X163783227Y-120383877D01*
X163830000Y-120313876D01*
X163876773Y-120383877D01*
X164096123Y-120603227D01*
X164354052Y-120775570D01*
X164640648Y-120894282D01*
X164944896Y-120954800D01*
X165255104Y-120954800D01*
X165559352Y-120894282D01*
X165845948Y-120775570D01*
X166103877Y-120603227D01*
X166323227Y-120383877D01*
X166370000Y-120313876D01*
X166416773Y-120383877D01*
X166636123Y-120603227D01*
X166894052Y-120775570D01*
X167180648Y-120894282D01*
X167484896Y-120954800D01*
X167795104Y-120954800D01*
X168099352Y-120894282D01*
X168385948Y-120775570D01*
X168643877Y-120603227D01*
X168863227Y-120383877D01*
X168910000Y-120313876D01*
X168956773Y-120383877D01*
X169176123Y-120603227D01*
X169434052Y-120775570D01*
X169720648Y-120894282D01*
X170024896Y-120954800D01*
X170335104Y-120954800D01*
X170639352Y-120894282D01*
X170925948Y-120775570D01*
X171183877Y-120603227D01*
X171403227Y-120383877D01*
X171450000Y-120313876D01*
X171496773Y-120383877D01*
X171716123Y-120603227D01*
X171974052Y-120775570D01*
X172260648Y-120894282D01*
X172564896Y-120954800D01*
X172875104Y-120954800D01*
X173179352Y-120894282D01*
X173465948Y-120775570D01*
X173723877Y-120603227D01*
X173943227Y-120383877D01*
X173990000Y-120313876D01*
X174036773Y-120383877D01*
X174256123Y-120603227D01*
X174514052Y-120775570D01*
X174800648Y-120894282D01*
X175104896Y-120954800D01*
X175415104Y-120954800D01*
X175719352Y-120894282D01*
X176005948Y-120775570D01*
X176263877Y-120603227D01*
X176483227Y-120383877D01*
X176655570Y-120125948D01*
X176774282Y-119839352D01*
X176834800Y-119535104D01*
X176834800Y-119224896D01*
X176774282Y-118920648D01*
X176655570Y-118634052D01*
X176483227Y-118376123D01*
X176263877Y-118156773D01*
X176005948Y-117984430D01*
X175719352Y-117865718D01*
X175415104Y-117805200D01*
X175104896Y-117805200D01*
X174800648Y-117865718D01*
X174514052Y-117984430D01*
X174256123Y-118156773D01*
X174036773Y-118376123D01*
X173990000Y-118446124D01*
X173943227Y-118376123D01*
X173723877Y-118156773D01*
X173465948Y-117984430D01*
X173179352Y-117865718D01*
X172875104Y-117805200D01*
X172564896Y-117805200D01*
X172260648Y-117865718D01*
X171974052Y-117984430D01*
X171716123Y-118156773D01*
X171496773Y-118376123D01*
X171450000Y-118446124D01*
X171403227Y-118376123D01*
X171183877Y-118156773D01*
X170925948Y-117984430D01*
X170639352Y-117865718D01*
X170335104Y-117805200D01*
X170024896Y-117805200D01*
X169720648Y-117865718D01*
X169434052Y-117984430D01*
X169176123Y-118156773D01*
X168956773Y-118376123D01*
X168910000Y-118446124D01*
X168863227Y-118376123D01*
X168643877Y-118156773D01*
X168385948Y-117984430D01*
X168099352Y-117865718D01*
X167795104Y-117805200D01*
X167484896Y-117805200D01*
X167180648Y-117865718D01*
X166894052Y-117984430D01*
X166636123Y-118156773D01*
X166416773Y-118376123D01*
X166370000Y-118446124D01*
X166323227Y-118376123D01*
X166103877Y-118156773D01*
X165845948Y-117984430D01*
X165559352Y-117865718D01*
X165255104Y-117805200D01*
X164944896Y-117805200D01*
X164640648Y-117865718D01*
X164354052Y-117984430D01*
X164096123Y-118156773D01*
X163876773Y-118376123D01*
X163830000Y-118446124D01*
X163783227Y-118376123D01*
X163563877Y-118156773D01*
X163305948Y-117984430D01*
X163019352Y-117865718D01*
X162715104Y-117805200D01*
X162404896Y-117805200D01*
X162100648Y-117865718D01*
X161814052Y-117984430D01*
X161556123Y-118156773D01*
X161336773Y-118376123D01*
X161290000Y-118446124D01*
X161243227Y-118376123D01*
X161023877Y-118156773D01*
X160765948Y-117984430D01*
X160479352Y-117865718D01*
X160175104Y-117805200D01*
X159864896Y-117805200D01*
X159560648Y-117865718D01*
X159274052Y-117984430D01*
X159016123Y-118156773D01*
X158796773Y-118376123D01*
X158750000Y-118446124D01*
X158703227Y-118376123D01*
X158483877Y-118156773D01*
X158225948Y-117984430D01*
X157939352Y-117865718D01*
X157635104Y-117805200D01*
X157324896Y-117805200D01*
X157020648Y-117865718D01*
X156734052Y-117984430D01*
X156476123Y-118156773D01*
X156256773Y-118376123D01*
X156210000Y-118446124D01*
X156163227Y-118376123D01*
X155943877Y-118156773D01*
X155685948Y-117984430D01*
X155399352Y-117865718D01*
X155095104Y-117805200D01*
X154784896Y-117805200D01*
X154480648Y-117865718D01*
X154194052Y-117984430D01*
X153936123Y-118156773D01*
X153716773Y-118376123D01*
X153670000Y-118446124D01*
X153623227Y-118376123D01*
X153403877Y-118156773D01*
X153145948Y-117984430D01*
X152859352Y-117865718D01*
X152555104Y-117805200D01*
X152244896Y-117805200D01*
X151940648Y-117865718D01*
X151654052Y-117984430D01*
X151396123Y-118156773D01*
X151176773Y-118376123D01*
X151085505Y-118512714D01*
X150952476Y-118467129D01*
X150039605Y-119380000D01*
X149680395Y-119380000D01*
X148767524Y-118467129D01*
X148634495Y-118512714D01*
X148543227Y-118376123D01*
X148454628Y-118287524D01*
X148947129Y-118287524D01*
X149860000Y-119200395D01*
X150772871Y-118287524D01*
X150684377Y-118029277D01*
X150405024Y-117894403D01*
X150104725Y-117816619D01*
X149795023Y-117798916D01*
X149487816Y-117841973D01*
X149194914Y-117944135D01*
X149035623Y-118029277D01*
X148947129Y-118287524D01*
X148454628Y-118287524D01*
X148323877Y-118156773D01*
X148065948Y-117984430D01*
X147779352Y-117865718D01*
X147475104Y-117805200D01*
X147164896Y-117805200D01*
X146860648Y-117865718D01*
X146574052Y-117984430D01*
X146316123Y-118156773D01*
X146096773Y-118376123D01*
X145924430Y-118634052D01*
X145805718Y-118920648D01*
X145745200Y-119224896D01*
X141748277Y-119224896D01*
X141630000Y-119106620D01*
X141630000Y-116705413D01*
X143824192Y-116705413D01*
X143919956Y-116969814D01*
X144209571Y-117110704D01*
X144521108Y-117192384D01*
X144842595Y-117211718D01*
X145161675Y-117167961D01*
X145466088Y-117062795D01*
X145640044Y-116969814D01*
X145735808Y-116705413D01*
X144780000Y-115749605D01*
X143824192Y-116705413D01*
X141630000Y-116705413D01*
X141630000Y-115632595D01*
X143138282Y-115632595D01*
X143182039Y-115951675D01*
X143287205Y-116256088D01*
X143380186Y-116430044D01*
X143644587Y-116525808D01*
X144600395Y-115570000D01*
X144959605Y-115570000D01*
X145915413Y-116525808D01*
X146179814Y-116430044D01*
X146320704Y-116140429D01*
X146402384Y-115828892D01*
X146421718Y-115507405D01*
X146408219Y-115408967D01*
X147645000Y-115408967D01*
X147645000Y-115731033D01*
X147707832Y-116046912D01*
X147831082Y-116344463D01*
X148010013Y-116612252D01*
X148237748Y-116839987D01*
X148505537Y-117018918D01*
X148803088Y-117142168D01*
X149118967Y-117205000D01*
X149441033Y-117205000D01*
X149756912Y-117142168D01*
X150054463Y-117018918D01*
X150322252Y-116839987D01*
X150549987Y-116612252D01*
X150728918Y-116344463D01*
X150852168Y-116046912D01*
X150915000Y-115731033D01*
X150915000Y-115408967D01*
X150852168Y-115093088D01*
X150728918Y-114795537D01*
X150711855Y-114770000D01*
X150961928Y-114770000D01*
X150961928Y-116370000D01*
X150974188Y-116494482D01*
X151010498Y-116614180D01*
X151069463Y-116724494D01*
X151148815Y-116821185D01*
X151245506Y-116900537D01*
X151355820Y-116959502D01*
X151475518Y-116995812D01*
X151600000Y-117008072D01*
X153200000Y-117008072D01*
X153324482Y-116995812D01*
X153444180Y-116959502D01*
X153554494Y-116900537D01*
X153651185Y-116821185D01*
X153730537Y-116724494D01*
X153789502Y-116614180D01*
X153805117Y-116562702D01*
X154126903Y-116562702D01*
X154198486Y-116806671D01*
X154453996Y-116927571D01*
X154728184Y-116996300D01*
X155010512Y-117010217D01*
X155290130Y-116968787D01*
X155556292Y-116873603D01*
X155681514Y-116806671D01*
X155753097Y-116562702D01*
X154940000Y-115749605D01*
X154126903Y-116562702D01*
X153805117Y-116562702D01*
X153825812Y-116494482D01*
X153838072Y-116370000D01*
X153838072Y-116351049D01*
X153947298Y-116383097D01*
X154760395Y-115570000D01*
X155119605Y-115570000D01*
X155932702Y-116383097D01*
X156176671Y-116311514D01*
X156207194Y-116247008D01*
X156208320Y-116249727D01*
X156365363Y-116484759D01*
X156565241Y-116684637D01*
X156800273Y-116841680D01*
X157061426Y-116949853D01*
X157338665Y-117005000D01*
X157621335Y-117005000D01*
X157898574Y-116949853D01*
X158159727Y-116841680D01*
X158394759Y-116684637D01*
X158594637Y-116484759D01*
X158750000Y-116252241D01*
X158905363Y-116484759D01*
X159105241Y-116684637D01*
X159340273Y-116841680D01*
X159601426Y-116949853D01*
X159878665Y-117005000D01*
X160161335Y-117005000D01*
X160438574Y-116949853D01*
X160699727Y-116841680D01*
X160934759Y-116684637D01*
X161134637Y-116484759D01*
X161290000Y-116252241D01*
X161445363Y-116484759D01*
X161645241Y-116684637D01*
X161880273Y-116841680D01*
X162141426Y-116949853D01*
X162418665Y-117005000D01*
X162701335Y-117005000D01*
X162978574Y-116949853D01*
X163239727Y-116841680D01*
X163474759Y-116684637D01*
X163674637Y-116484759D01*
X163830000Y-116252241D01*
X163985363Y-116484759D01*
X164185241Y-116684637D01*
X164420273Y-116841680D01*
X164681426Y-116949853D01*
X164958665Y-117005000D01*
X165241335Y-117005000D01*
X165518574Y-116949853D01*
X165779727Y-116841680D01*
X166014759Y-116684637D01*
X166136694Y-116562702D01*
X166826903Y-116562702D01*
X166898486Y-116806671D01*
X167153996Y-116927571D01*
X167428184Y-116996300D01*
X167710512Y-117010217D01*
X167990130Y-116968787D01*
X168256292Y-116873603D01*
X168381514Y-116806671D01*
X168453097Y-116562702D01*
X167640000Y-115749605D01*
X166826903Y-116562702D01*
X166136694Y-116562702D01*
X166214637Y-116484759D01*
X166370915Y-116250872D01*
X166403329Y-116311514D01*
X166647298Y-116383097D01*
X167460395Y-115570000D01*
X167819605Y-115570000D01*
X168632702Y-116383097D01*
X168876671Y-116311514D01*
X168907194Y-116247008D01*
X168908320Y-116249727D01*
X169065363Y-116484759D01*
X169265241Y-116684637D01*
X169500273Y-116841680D01*
X169761426Y-116949853D01*
X170038665Y-117005000D01*
X170321335Y-117005000D01*
X170598574Y-116949853D01*
X170859727Y-116841680D01*
X171094759Y-116684637D01*
X171294637Y-116484759D01*
X171450000Y-116252241D01*
X171605363Y-116484759D01*
X171805241Y-116684637D01*
X172040273Y-116841680D01*
X172301426Y-116949853D01*
X172578665Y-117005000D01*
X172861335Y-117005000D01*
X173138574Y-116949853D01*
X173399727Y-116841680D01*
X173634759Y-116684637D01*
X173834637Y-116484759D01*
X173990000Y-116252241D01*
X174145363Y-116484759D01*
X174345241Y-116684637D01*
X174580273Y-116841680D01*
X174841426Y-116949853D01*
X175118665Y-117005000D01*
X175401335Y-117005000D01*
X175678574Y-116949853D01*
X175939727Y-116841680D01*
X176174759Y-116684637D01*
X176374637Y-116484759D01*
X176531680Y-116249727D01*
X176639853Y-115988574D01*
X176695000Y-115711335D01*
X176695000Y-115428665D01*
X176639853Y-115151426D01*
X176531680Y-114890273D01*
X176374637Y-114655241D01*
X176174759Y-114455363D01*
X175939727Y-114298320D01*
X175678574Y-114190147D01*
X175401335Y-114135000D01*
X175118665Y-114135000D01*
X174841426Y-114190147D01*
X174580273Y-114298320D01*
X174345241Y-114455363D01*
X174145363Y-114655241D01*
X173990000Y-114887759D01*
X173834637Y-114655241D01*
X173634759Y-114455363D01*
X173399727Y-114298320D01*
X173138574Y-114190147D01*
X172861335Y-114135000D01*
X172578665Y-114135000D01*
X172301426Y-114190147D01*
X172040273Y-114298320D01*
X171805241Y-114455363D01*
X171605363Y-114655241D01*
X171450000Y-114887759D01*
X171294637Y-114655241D01*
X171094759Y-114455363D01*
X170859727Y-114298320D01*
X170598574Y-114190147D01*
X170321335Y-114135000D01*
X170038665Y-114135000D01*
X169761426Y-114190147D01*
X169500273Y-114298320D01*
X169265241Y-114455363D01*
X169065363Y-114655241D01*
X168909085Y-114889128D01*
X168876671Y-114828486D01*
X168632702Y-114756903D01*
X167819605Y-115570000D01*
X167460395Y-115570000D01*
X166647298Y-114756903D01*
X166403329Y-114828486D01*
X166372806Y-114892992D01*
X166371680Y-114890273D01*
X166214637Y-114655241D01*
X166136694Y-114577298D01*
X166826903Y-114577298D01*
X167640000Y-115390395D01*
X168453097Y-114577298D01*
X168381514Y-114333329D01*
X168126004Y-114212429D01*
X167851816Y-114143700D01*
X167569488Y-114129783D01*
X167289870Y-114171213D01*
X167023708Y-114266397D01*
X166898486Y-114333329D01*
X166826903Y-114577298D01*
X166136694Y-114577298D01*
X166014759Y-114455363D01*
X165779727Y-114298320D01*
X165518574Y-114190147D01*
X165241335Y-114135000D01*
X164958665Y-114135000D01*
X164681426Y-114190147D01*
X164420273Y-114298320D01*
X164185241Y-114455363D01*
X163985363Y-114655241D01*
X163830000Y-114887759D01*
X163674637Y-114655241D01*
X163474759Y-114455363D01*
X163239727Y-114298320D01*
X162978574Y-114190147D01*
X162701335Y-114135000D01*
X162418665Y-114135000D01*
X162141426Y-114190147D01*
X161880273Y-114298320D01*
X161645241Y-114455363D01*
X161445363Y-114655241D01*
X161290000Y-114887759D01*
X161134637Y-114655241D01*
X160934759Y-114455363D01*
X160699727Y-114298320D01*
X160438574Y-114190147D01*
X160161335Y-114135000D01*
X159878665Y-114135000D01*
X159601426Y-114190147D01*
X159340273Y-114298320D01*
X159105241Y-114455363D01*
X158905363Y-114655241D01*
X158750000Y-114887759D01*
X158594637Y-114655241D01*
X158394759Y-114455363D01*
X158159727Y-114298320D01*
X157898574Y-114190147D01*
X157621335Y-114135000D01*
X157338665Y-114135000D01*
X157061426Y-114190147D01*
X156800273Y-114298320D01*
X156565241Y-114455363D01*
X156365363Y-114655241D01*
X156209085Y-114889128D01*
X156176671Y-114828486D01*
X155932702Y-114756903D01*
X155119605Y-115570000D01*
X154760395Y-115570000D01*
X153947298Y-114756903D01*
X153838072Y-114788951D01*
X153838072Y-114770000D01*
X153825812Y-114645518D01*
X153805118Y-114577298D01*
X154126903Y-114577298D01*
X154940000Y-115390395D01*
X155753097Y-114577298D01*
X155681514Y-114333329D01*
X155426004Y-114212429D01*
X155151816Y-114143700D01*
X154869488Y-114129783D01*
X154589870Y-114171213D01*
X154323708Y-114266397D01*
X154198486Y-114333329D01*
X154126903Y-114577298D01*
X153805118Y-114577298D01*
X153789502Y-114525820D01*
X153730537Y-114415506D01*
X153651185Y-114318815D01*
X153554494Y-114239463D01*
X153444180Y-114180498D01*
X153324482Y-114144188D01*
X153200000Y-114131928D01*
X151600000Y-114131928D01*
X151475518Y-114144188D01*
X151355820Y-114180498D01*
X151245506Y-114239463D01*
X151148815Y-114318815D01*
X151069463Y-114415506D01*
X151010498Y-114525820D01*
X150974188Y-114645518D01*
X150961928Y-114770000D01*
X150711855Y-114770000D01*
X150549987Y-114527748D01*
X150322252Y-114300013D01*
X150054463Y-114121082D01*
X149756912Y-113997832D01*
X149441033Y-113935000D01*
X149118967Y-113935000D01*
X148803088Y-113997832D01*
X148505537Y-114121082D01*
X148237748Y-114300013D01*
X148010013Y-114527748D01*
X147831082Y-114795537D01*
X147707832Y-115093088D01*
X147645000Y-115408967D01*
X146408219Y-115408967D01*
X146377961Y-115188325D01*
X146272795Y-114883912D01*
X146179814Y-114709956D01*
X145915413Y-114614192D01*
X144959605Y-115570000D01*
X144600395Y-115570000D01*
X143644587Y-114614192D01*
X143380186Y-114709956D01*
X143239296Y-114999571D01*
X143157616Y-115311108D01*
X143138282Y-115632595D01*
X141630000Y-115632595D01*
X141630000Y-114434587D01*
X143824192Y-114434587D01*
X144780000Y-115390395D01*
X145735808Y-114434587D01*
X145640044Y-114170186D01*
X145350429Y-114029296D01*
X145038892Y-113947616D01*
X144717405Y-113928282D01*
X144398325Y-113972039D01*
X144093912Y-114077205D01*
X143919956Y-114170186D01*
X143824192Y-114434587D01*
X141630000Y-114434587D01*
X141630000Y-110205413D01*
X143824192Y-110205413D01*
X143919956Y-110469814D01*
X144209571Y-110610704D01*
X144521108Y-110692384D01*
X144842595Y-110711718D01*
X145161675Y-110667961D01*
X145466088Y-110562795D01*
X145640044Y-110469814D01*
X145735808Y-110205413D01*
X144780000Y-109249605D01*
X143824192Y-110205413D01*
X141630000Y-110205413D01*
X141630000Y-109132595D01*
X143138282Y-109132595D01*
X143182039Y-109451675D01*
X143287205Y-109756088D01*
X143380186Y-109930044D01*
X143644587Y-110025808D01*
X144600395Y-109070000D01*
X144959605Y-109070000D01*
X145915413Y-110025808D01*
X146179814Y-109930044D01*
X146320704Y-109640429D01*
X146402384Y-109328892D01*
X146421718Y-109007405D01*
X146408219Y-108908967D01*
X147645000Y-108908967D01*
X147645000Y-109231033D01*
X147707832Y-109546912D01*
X147831082Y-109844463D01*
X148010013Y-110112252D01*
X148237748Y-110339987D01*
X148505537Y-110518918D01*
X148803088Y-110642168D01*
X149118967Y-110705000D01*
X149441033Y-110705000D01*
X149756912Y-110642168D01*
X150054463Y-110518918D01*
X150322252Y-110339987D01*
X150549987Y-110112252D01*
X150728918Y-109844463D01*
X150852168Y-109546912D01*
X150915000Y-109231033D01*
X150915000Y-108908967D01*
X150852168Y-108593088D01*
X150728918Y-108295537D01*
X150549987Y-108027748D01*
X150322252Y-107800013D01*
X150054463Y-107621082D01*
X149756912Y-107497832D01*
X149441033Y-107435000D01*
X149118967Y-107435000D01*
X148803088Y-107497832D01*
X148505537Y-107621082D01*
X148237748Y-107800013D01*
X148010013Y-108027748D01*
X147831082Y-108295537D01*
X147707832Y-108593088D01*
X147645000Y-108908967D01*
X146408219Y-108908967D01*
X146377961Y-108688325D01*
X146272795Y-108383912D01*
X146179814Y-108209956D01*
X145915413Y-108114192D01*
X144959605Y-109070000D01*
X144600395Y-109070000D01*
X143644587Y-108114192D01*
X143380186Y-108209956D01*
X143239296Y-108499571D01*
X143157616Y-108811108D01*
X143138282Y-109132595D01*
X141630000Y-109132595D01*
X141630000Y-107934587D01*
X143824192Y-107934587D01*
X144780000Y-108890395D01*
X145735808Y-107934587D01*
X145640044Y-107670186D01*
X145350429Y-107529296D01*
X145038892Y-107447616D01*
X144717405Y-107428282D01*
X144398325Y-107472039D01*
X144093912Y-107577205D01*
X143919956Y-107670186D01*
X143824192Y-107934587D01*
X141630000Y-107934587D01*
X141630000Y-100990000D01*
X177140001Y-100990000D01*
X177140000Y-136500000D01*
M02*
