%FSLAX45Y45*%
G04 Gerber Fmt 4.5, Leading zero omitted, Abs format (unit mm)*
G04 Created by KiCad (PCBNEW 5.1.5+dfsg1-2build2) date 2021-01-23 00:15:58*
%MOMM*%
%LPD*%
G04 APERTURE LIST*
%TA.AperFunction,Profile*%
%ADD10C,0.050000*%
%TD*%
%ADD11C,0.200000*%
%ADD12C,0.300000*%
G04 APERTURE END LIST*
D10*
X14097000Y-10033000D02*
X14097000Y-11938000D01*
X17780000Y-10033000D02*
X14097000Y-10033000D01*
X17780000Y-13716000D02*
X17780000Y-10033000D01*
X14097000Y-13716000D02*
X17780000Y-13716000D01*
X14097000Y-13462000D02*
X14097000Y-13716000D01*
X14351000Y-13208000D02*
X14097000Y-13462000D01*
X14351000Y-12192000D02*
X14351000Y-13208000D01*
X14097000Y-11938000D02*
X14351000Y-12192000D01*
D11*
X15197500Y-11514500D02*
X15282500Y-11599500D01*
X15282500Y-11514500D02*
X15197500Y-11599500D01*
X15451500Y-11514500D02*
X15536500Y-11599500D01*
X15536500Y-11514500D02*
X15451500Y-11599500D01*
X15705500Y-11514500D02*
X15790500Y-11599500D01*
X15790500Y-11514500D02*
X15705500Y-11599500D01*
X15959500Y-11514500D02*
X16044500Y-11599500D01*
X16044500Y-11514500D02*
X15959500Y-11599500D01*
X16213500Y-11514500D02*
X16298500Y-11599500D01*
X16298500Y-11514500D02*
X16213500Y-11599500D01*
X16467500Y-11514500D02*
X16552500Y-11599500D01*
X16552500Y-11514500D02*
X16467500Y-11599500D01*
X16721500Y-11514500D02*
X16806500Y-11599500D01*
X16806500Y-11514500D02*
X16721500Y-11599500D01*
X16975500Y-11514500D02*
X17060500Y-11599500D01*
X17060500Y-11514500D02*
X16975500Y-11599500D01*
X17229500Y-11514500D02*
X17314500Y-11599500D01*
X17314500Y-11514500D02*
X17229500Y-11599500D01*
X17483500Y-11514500D02*
X17568500Y-11599500D01*
X17568500Y-11514500D02*
X17483500Y-11599500D01*
X14782800Y-11938000D02*
G75*
G03X14782800Y-11938000I-50800J0D01*
G01*
X14782800Y-13462000D02*
G75*
G03X14782800Y-13462000I-50800J0D01*
G01*
X15036800Y-11938000D02*
G75*
G03X15036800Y-11938000I-50800J0D01*
G01*
X15036800Y-13462000D02*
G75*
G03X15036800Y-13462000I-50800J0D01*
G01*
X15290800Y-11938000D02*
G75*
G03X15290800Y-11938000I-50800J0D01*
G01*
X15290800Y-13462000D02*
G75*
G03X15290800Y-13462000I-50800J0D01*
G01*
X15544800Y-11938000D02*
G75*
G03X15544800Y-11938000I-50800J0D01*
G01*
X15544800Y-13462000D02*
G75*
G03X15544800Y-13462000I-50800J0D01*
G01*
X15798800Y-11938000D02*
G75*
G03X15798800Y-11938000I-50800J0D01*
G01*
X15798800Y-13462000D02*
G75*
G03X15798800Y-13462000I-50800J0D01*
G01*
X16052800Y-11938000D02*
G75*
G03X16052800Y-11938000I-50800J0D01*
G01*
X16052800Y-13462000D02*
G75*
G03X16052800Y-13462000I-50800J0D01*
G01*
X16306800Y-11938000D02*
G75*
G03X16306800Y-11938000I-50800J0D01*
G01*
X16306800Y-13462000D02*
G75*
G03X16306800Y-13462000I-50800J0D01*
G01*
X16560800Y-11938000D02*
G75*
G03X16560800Y-11938000I-50800J0D01*
G01*
X16560800Y-13462000D02*
G75*
G03X16560800Y-13462000I-50800J0D01*
G01*
X16814800Y-11938000D02*
G75*
G03X16814800Y-11938000I-50800J0D01*
G01*
X16814800Y-13462000D02*
G75*
G03X16814800Y-13462000I-50800J0D01*
G01*
X17068800Y-11938000D02*
G75*
G03X17068800Y-11938000I-50800J0D01*
G01*
X17068800Y-13462000D02*
G75*
G03X17068800Y-13462000I-50800J0D01*
G01*
X17322800Y-11938000D02*
G75*
G03X17322800Y-11938000I-50800J0D01*
G01*
X17322800Y-13462000D02*
G75*
G03X17322800Y-13462000I-50800J0D01*
G01*
X17576800Y-11938000D02*
G75*
G03X17576800Y-11938000I-50800J0D01*
G01*
X17576800Y-13462000D02*
G75*
G03X17576800Y-13462000I-50800J0D01*
G01*
X14478000Y-10852000D02*
X14478000Y-10962000D01*
X14423000Y-10907000D02*
X14533000Y-10907000D01*
X14478000Y-11502000D02*
X14478000Y-11612000D01*
X14423000Y-11557000D02*
X14533000Y-11557000D01*
X14928000Y-10852000D02*
X14928000Y-10962000D01*
X14873000Y-10907000D02*
X14983000Y-10907000D01*
X14928000Y-11502000D02*
X14928000Y-11612000D01*
X14873000Y-11557000D02*
X14983000Y-11557000D01*
D12*
X14380928Y-14184214D02*
X14380928Y-13884214D01*
X14452357Y-13884214D01*
X14495214Y-13898500D01*
X14523786Y-13927071D01*
X14538071Y-13955643D01*
X14552357Y-14012786D01*
X14552357Y-14055643D01*
X14538071Y-14112786D01*
X14523786Y-14141357D01*
X14495214Y-14169929D01*
X14452357Y-14184214D01*
X14380928Y-14184214D01*
X14680928Y-14184214D02*
X14680928Y-13984214D01*
X14680928Y-14041357D02*
X14695214Y-14012786D01*
X14709500Y-13998500D01*
X14738071Y-13984214D01*
X14766643Y-13984214D01*
X14866643Y-14184214D02*
X14866643Y-13984214D01*
X14866643Y-13884214D02*
X14852357Y-13898500D01*
X14866643Y-13912786D01*
X14880928Y-13898500D01*
X14866643Y-13884214D01*
X14866643Y-13912786D01*
X15052357Y-14184214D02*
X15023786Y-14169929D01*
X15009500Y-14141357D01*
X15009500Y-13884214D01*
X15209500Y-14184214D02*
X15180928Y-14169929D01*
X15166643Y-14141357D01*
X15166643Y-13884214D01*
X15552357Y-14184214D02*
X15552357Y-13884214D01*
X15652357Y-14098500D01*
X15752357Y-13884214D01*
X15752357Y-14184214D01*
X16023786Y-14184214D02*
X16023786Y-14027071D01*
X16009500Y-13998500D01*
X15980928Y-13984214D01*
X15923786Y-13984214D01*
X15895214Y-13998500D01*
X16023786Y-14169929D02*
X15995214Y-14184214D01*
X15923786Y-14184214D01*
X15895214Y-14169929D01*
X15880928Y-14141357D01*
X15880928Y-14112786D01*
X15895214Y-14084214D01*
X15923786Y-14069929D01*
X15995214Y-14069929D01*
X16023786Y-14055643D01*
X16166643Y-13984214D02*
X16166643Y-14284214D01*
X16166643Y-13998500D02*
X16195214Y-13984214D01*
X16252357Y-13984214D01*
X16280928Y-13998500D01*
X16295214Y-14012786D01*
X16309500Y-14041357D01*
X16309500Y-14127071D01*
X16295214Y-14155643D01*
X16280928Y-14169929D01*
X16252357Y-14184214D01*
X16195214Y-14184214D01*
X16166643Y-14169929D01*
X16438071Y-14155643D02*
X16452357Y-14169929D01*
X16438071Y-14184214D01*
X16423786Y-14169929D01*
X16438071Y-14155643D01*
X16438071Y-14184214D01*
X16438071Y-13998500D02*
X16452357Y-14012786D01*
X16438071Y-14027071D01*
X16423786Y-14012786D01*
X16438071Y-13998500D01*
X16438071Y-14027071D01*
X14009500Y-14636000D02*
X14094500Y-14721000D01*
X14094500Y-14636000D02*
X14009500Y-14721000D01*
X14438071Y-14514214D02*
X14466643Y-14514214D01*
X14495214Y-14528500D01*
X14509500Y-14542786D01*
X14523786Y-14571357D01*
X14538071Y-14628500D01*
X14538071Y-14699929D01*
X14523786Y-14757071D01*
X14509500Y-14785643D01*
X14495214Y-14799929D01*
X14466643Y-14814214D01*
X14438071Y-14814214D01*
X14409500Y-14799929D01*
X14395214Y-14785643D01*
X14380928Y-14757071D01*
X14366643Y-14699929D01*
X14366643Y-14628500D01*
X14380928Y-14571357D01*
X14395214Y-14542786D01*
X14409500Y-14528500D01*
X14438071Y-14514214D01*
X14666643Y-14785643D02*
X14680928Y-14799929D01*
X14666643Y-14814214D01*
X14652357Y-14799929D01*
X14666643Y-14785643D01*
X14666643Y-14814214D01*
X14852357Y-14642786D02*
X14823786Y-14628500D01*
X14809500Y-14614214D01*
X14795214Y-14585643D01*
X14795214Y-14571357D01*
X14809500Y-14542786D01*
X14823786Y-14528500D01*
X14852357Y-14514214D01*
X14909500Y-14514214D01*
X14938071Y-14528500D01*
X14952357Y-14542786D01*
X14966643Y-14571357D01*
X14966643Y-14585643D01*
X14952357Y-14614214D01*
X14938071Y-14628500D01*
X14909500Y-14642786D01*
X14852357Y-14642786D01*
X14823786Y-14657071D01*
X14809500Y-14671357D01*
X14795214Y-14699929D01*
X14795214Y-14757071D01*
X14809500Y-14785643D01*
X14823786Y-14799929D01*
X14852357Y-14814214D01*
X14909500Y-14814214D01*
X14938071Y-14799929D01*
X14952357Y-14785643D01*
X14966643Y-14757071D01*
X14966643Y-14699929D01*
X14952357Y-14671357D01*
X14938071Y-14657071D01*
X14909500Y-14642786D01*
X15238071Y-14514214D02*
X15095214Y-14514214D01*
X15080928Y-14657071D01*
X15095214Y-14642786D01*
X15123786Y-14628500D01*
X15195214Y-14628500D01*
X15223786Y-14642786D01*
X15238071Y-14657071D01*
X15252357Y-14685643D01*
X15252357Y-14757071D01*
X15238071Y-14785643D01*
X15223786Y-14799929D01*
X15195214Y-14814214D01*
X15123786Y-14814214D01*
X15095214Y-14799929D01*
X15080928Y-14785643D01*
X15380928Y-14814214D02*
X15380928Y-14614214D01*
X15380928Y-14642786D02*
X15395214Y-14628500D01*
X15423786Y-14614214D01*
X15466643Y-14614214D01*
X15495214Y-14628500D01*
X15509500Y-14657071D01*
X15509500Y-14814214D01*
X15509500Y-14657071D02*
X15523786Y-14628500D01*
X15552357Y-14614214D01*
X15595214Y-14614214D01*
X15623786Y-14628500D01*
X15638071Y-14657071D01*
X15638071Y-14814214D01*
X15780928Y-14814214D02*
X15780928Y-14614214D01*
X15780928Y-14642786D02*
X15795214Y-14628500D01*
X15823786Y-14614214D01*
X15866643Y-14614214D01*
X15895214Y-14628500D01*
X15909500Y-14657071D01*
X15909500Y-14814214D01*
X15909500Y-14657071D02*
X15923786Y-14628500D01*
X15952357Y-14614214D01*
X15995214Y-14614214D01*
X16023786Y-14628500D01*
X16038071Y-14657071D01*
X16038071Y-14814214D01*
X16623786Y-14499929D02*
X16366643Y-14885643D01*
X17009500Y-14514214D02*
X17038071Y-14514214D01*
X17066643Y-14528500D01*
X17080928Y-14542786D01*
X17095214Y-14571357D01*
X17109500Y-14628500D01*
X17109500Y-14699929D01*
X17095214Y-14757071D01*
X17080928Y-14785643D01*
X17066643Y-14799929D01*
X17038071Y-14814214D01*
X17009500Y-14814214D01*
X16980928Y-14799929D01*
X16966643Y-14785643D01*
X16952357Y-14757071D01*
X16938071Y-14699929D01*
X16938071Y-14628500D01*
X16952357Y-14571357D01*
X16966643Y-14542786D01*
X16980928Y-14528500D01*
X17009500Y-14514214D01*
X17238071Y-14785643D02*
X17252357Y-14799929D01*
X17238071Y-14814214D01*
X17223786Y-14799929D01*
X17238071Y-14785643D01*
X17238071Y-14814214D01*
X17438071Y-14514214D02*
X17466643Y-14514214D01*
X17495214Y-14528500D01*
X17509500Y-14542786D01*
X17523786Y-14571357D01*
X17538071Y-14628500D01*
X17538071Y-14699929D01*
X17523786Y-14757071D01*
X17509500Y-14785643D01*
X17495214Y-14799929D01*
X17466643Y-14814214D01*
X17438071Y-14814214D01*
X17409500Y-14799929D01*
X17395214Y-14785643D01*
X17380928Y-14757071D01*
X17366643Y-14699929D01*
X17366643Y-14628500D01*
X17380928Y-14571357D01*
X17395214Y-14542786D01*
X17409500Y-14528500D01*
X17438071Y-14514214D01*
X17638071Y-14514214D02*
X17823786Y-14514214D01*
X17723786Y-14628500D01*
X17766643Y-14628500D01*
X17795214Y-14642786D01*
X17809500Y-14657071D01*
X17823786Y-14685643D01*
X17823786Y-14757071D01*
X17809500Y-14785643D01*
X17795214Y-14799929D01*
X17766643Y-14814214D01*
X17680928Y-14814214D01*
X17652357Y-14799929D01*
X17638071Y-14785643D01*
X17923786Y-14514214D02*
X18109500Y-14514214D01*
X18009500Y-14628500D01*
X18052357Y-14628500D01*
X18080928Y-14642786D01*
X18095214Y-14657071D01*
X18109500Y-14685643D01*
X18109500Y-14757071D01*
X18095214Y-14785643D01*
X18080928Y-14799929D01*
X18052357Y-14814214D01*
X17966643Y-14814214D01*
X17938071Y-14799929D01*
X17923786Y-14785643D01*
X18223786Y-14514214D02*
X18223786Y-14571357D01*
X18338071Y-14514214D02*
X18338071Y-14571357D01*
X18780928Y-14928500D02*
X18766643Y-14914214D01*
X18738071Y-14871357D01*
X18723786Y-14842786D01*
X18709500Y-14799929D01*
X18695214Y-14728500D01*
X18695214Y-14671357D01*
X18709500Y-14599929D01*
X18723786Y-14557071D01*
X18738071Y-14528500D01*
X18766643Y-14485643D01*
X18780928Y-14471357D01*
X19052357Y-14814214D02*
X18880928Y-14814214D01*
X18966643Y-14814214D02*
X18966643Y-14514214D01*
X18938071Y-14557071D01*
X18909500Y-14585643D01*
X18880928Y-14599929D01*
X19238071Y-14514214D02*
X19266643Y-14514214D01*
X19295214Y-14528500D01*
X19309500Y-14542786D01*
X19323786Y-14571357D01*
X19338071Y-14628500D01*
X19338071Y-14699929D01*
X19323786Y-14757071D01*
X19309500Y-14785643D01*
X19295214Y-14799929D01*
X19266643Y-14814214D01*
X19238071Y-14814214D01*
X19209500Y-14799929D01*
X19195214Y-14785643D01*
X19180928Y-14757071D01*
X19166643Y-14699929D01*
X19166643Y-14628500D01*
X19180928Y-14571357D01*
X19195214Y-14542786D01*
X19209500Y-14528500D01*
X19238071Y-14514214D01*
X19695214Y-14814214D02*
X19695214Y-14514214D01*
X19823786Y-14814214D02*
X19823786Y-14657071D01*
X19809500Y-14628500D01*
X19780928Y-14614214D01*
X19738071Y-14614214D01*
X19709500Y-14628500D01*
X19695214Y-14642786D01*
X20009500Y-14814214D02*
X19980928Y-14799929D01*
X19966643Y-14785643D01*
X19952357Y-14757071D01*
X19952357Y-14671357D01*
X19966643Y-14642786D01*
X19980928Y-14628500D01*
X20009500Y-14614214D01*
X20052357Y-14614214D01*
X20080928Y-14628500D01*
X20095214Y-14642786D01*
X20109500Y-14671357D01*
X20109500Y-14757071D01*
X20095214Y-14785643D01*
X20080928Y-14799929D01*
X20052357Y-14814214D01*
X20009500Y-14814214D01*
X20280928Y-14814214D02*
X20252357Y-14799929D01*
X20238071Y-14771357D01*
X20238071Y-14514214D01*
X20509500Y-14799929D02*
X20480928Y-14814214D01*
X20423786Y-14814214D01*
X20395214Y-14799929D01*
X20380928Y-14771357D01*
X20380928Y-14657071D01*
X20395214Y-14628500D01*
X20423786Y-14614214D01*
X20480928Y-14614214D01*
X20509500Y-14628500D01*
X20523786Y-14657071D01*
X20523786Y-14685643D01*
X20380928Y-14714214D01*
X20638071Y-14799929D02*
X20666643Y-14814214D01*
X20723786Y-14814214D01*
X20752357Y-14799929D01*
X20766643Y-14771357D01*
X20766643Y-14757071D01*
X20752357Y-14728500D01*
X20723786Y-14714214D01*
X20680928Y-14714214D01*
X20652357Y-14699929D01*
X20638071Y-14671357D01*
X20638071Y-14657071D01*
X20652357Y-14628500D01*
X20680928Y-14614214D01*
X20723786Y-14614214D01*
X20752357Y-14628500D01*
X20866643Y-14928500D02*
X20880928Y-14914214D01*
X20909500Y-14871357D01*
X20923786Y-14842786D01*
X20938071Y-14799929D01*
X20952357Y-14728500D01*
X20952357Y-14671357D01*
X20938071Y-14599929D01*
X20923786Y-14557071D01*
X20909500Y-14528500D01*
X20880928Y-14485643D01*
X20866643Y-14471357D01*
X14094500Y-15074500D02*
G75*
G03X14094500Y-15074500I-50800J0D01*
G01*
X14538071Y-15210214D02*
X14366643Y-15210214D01*
X14452357Y-15210214D02*
X14452357Y-14910214D01*
X14423786Y-14953071D01*
X14395214Y-14981643D01*
X14366643Y-14995929D01*
X14666643Y-15181643D02*
X14680928Y-15195929D01*
X14666643Y-15210214D01*
X14652357Y-15195929D01*
X14666643Y-15181643D01*
X14666643Y-15210214D01*
X14866643Y-14910214D02*
X14895214Y-14910214D01*
X14923786Y-14924500D01*
X14938071Y-14938786D01*
X14952357Y-14967357D01*
X14966643Y-15024500D01*
X14966643Y-15095929D01*
X14952357Y-15153071D01*
X14938071Y-15181643D01*
X14923786Y-15195929D01*
X14895214Y-15210214D01*
X14866643Y-15210214D01*
X14838071Y-15195929D01*
X14823786Y-15181643D01*
X14809500Y-15153071D01*
X14795214Y-15095929D01*
X14795214Y-15024500D01*
X14809500Y-14967357D01*
X14823786Y-14938786D01*
X14838071Y-14924500D01*
X14866643Y-14910214D01*
X15080928Y-14938786D02*
X15095214Y-14924500D01*
X15123786Y-14910214D01*
X15195214Y-14910214D01*
X15223786Y-14924500D01*
X15238071Y-14938786D01*
X15252357Y-14967357D01*
X15252357Y-14995929D01*
X15238071Y-15038786D01*
X15066643Y-15210214D01*
X15252357Y-15210214D01*
X15380928Y-15210214D02*
X15380928Y-15010214D01*
X15380928Y-15038786D02*
X15395214Y-15024500D01*
X15423786Y-15010214D01*
X15466643Y-15010214D01*
X15495214Y-15024500D01*
X15509500Y-15053071D01*
X15509500Y-15210214D01*
X15509500Y-15053071D02*
X15523786Y-15024500D01*
X15552357Y-15010214D01*
X15595214Y-15010214D01*
X15623786Y-15024500D01*
X15638071Y-15053071D01*
X15638071Y-15210214D01*
X15780928Y-15210214D02*
X15780928Y-15010214D01*
X15780928Y-15038786D02*
X15795214Y-15024500D01*
X15823786Y-15010214D01*
X15866643Y-15010214D01*
X15895214Y-15024500D01*
X15909500Y-15053071D01*
X15909500Y-15210214D01*
X15909500Y-15053071D02*
X15923786Y-15024500D01*
X15952357Y-15010214D01*
X15995214Y-15010214D01*
X16023786Y-15024500D01*
X16038071Y-15053071D01*
X16038071Y-15210214D01*
X16623786Y-14895929D02*
X16366643Y-15281643D01*
X17009500Y-14910214D02*
X17038071Y-14910214D01*
X17066643Y-14924500D01*
X17080928Y-14938786D01*
X17095214Y-14967357D01*
X17109500Y-15024500D01*
X17109500Y-15095929D01*
X17095214Y-15153071D01*
X17080928Y-15181643D01*
X17066643Y-15195929D01*
X17038071Y-15210214D01*
X17009500Y-15210214D01*
X16980928Y-15195929D01*
X16966643Y-15181643D01*
X16952357Y-15153071D01*
X16938071Y-15095929D01*
X16938071Y-15024500D01*
X16952357Y-14967357D01*
X16966643Y-14938786D01*
X16980928Y-14924500D01*
X17009500Y-14910214D01*
X17238071Y-15181643D02*
X17252357Y-15195929D01*
X17238071Y-15210214D01*
X17223786Y-15195929D01*
X17238071Y-15181643D01*
X17238071Y-15210214D01*
X17438071Y-14910214D02*
X17466643Y-14910214D01*
X17495214Y-14924500D01*
X17509500Y-14938786D01*
X17523786Y-14967357D01*
X17538071Y-15024500D01*
X17538071Y-15095929D01*
X17523786Y-15153071D01*
X17509500Y-15181643D01*
X17495214Y-15195929D01*
X17466643Y-15210214D01*
X17438071Y-15210214D01*
X17409500Y-15195929D01*
X17395214Y-15181643D01*
X17380928Y-15153071D01*
X17366643Y-15095929D01*
X17366643Y-15024500D01*
X17380928Y-14967357D01*
X17395214Y-14938786D01*
X17409500Y-14924500D01*
X17438071Y-14910214D01*
X17795214Y-15010214D02*
X17795214Y-15210214D01*
X17723786Y-14895929D02*
X17652357Y-15110214D01*
X17838071Y-15110214D01*
X18009500Y-14910214D02*
X18038071Y-14910214D01*
X18066643Y-14924500D01*
X18080928Y-14938786D01*
X18095214Y-14967357D01*
X18109500Y-15024500D01*
X18109500Y-15095929D01*
X18095214Y-15153071D01*
X18080928Y-15181643D01*
X18066643Y-15195929D01*
X18038071Y-15210214D01*
X18009500Y-15210214D01*
X17980928Y-15195929D01*
X17966643Y-15181643D01*
X17952357Y-15153071D01*
X17938071Y-15095929D01*
X17938071Y-15024500D01*
X17952357Y-14967357D01*
X17966643Y-14938786D01*
X17980928Y-14924500D01*
X18009500Y-14910214D01*
X18223786Y-14910214D02*
X18223786Y-14967357D01*
X18338071Y-14910214D02*
X18338071Y-14967357D01*
X18780928Y-15324500D02*
X18766643Y-15310214D01*
X18738071Y-15267357D01*
X18723786Y-15238786D01*
X18709500Y-15195929D01*
X18695214Y-15124500D01*
X18695214Y-15067357D01*
X18709500Y-14995929D01*
X18723786Y-14953071D01*
X18738071Y-14924500D01*
X18766643Y-14881643D01*
X18780928Y-14867357D01*
X18880928Y-14938786D02*
X18895214Y-14924500D01*
X18923786Y-14910214D01*
X18995214Y-14910214D01*
X19023786Y-14924500D01*
X19038071Y-14938786D01*
X19052357Y-14967357D01*
X19052357Y-14995929D01*
X19038071Y-15038786D01*
X18866643Y-15210214D01*
X19052357Y-15210214D01*
X19309500Y-15010214D02*
X19309500Y-15210214D01*
X19238071Y-14895929D02*
X19166643Y-15110214D01*
X19352357Y-15110214D01*
X19695214Y-15210214D02*
X19695214Y-14910214D01*
X19823786Y-15210214D02*
X19823786Y-15053071D01*
X19809500Y-15024500D01*
X19780928Y-15010214D01*
X19738071Y-15010214D01*
X19709500Y-15024500D01*
X19695214Y-15038786D01*
X20009500Y-15210214D02*
X19980928Y-15195929D01*
X19966643Y-15181643D01*
X19952357Y-15153071D01*
X19952357Y-15067357D01*
X19966643Y-15038786D01*
X19980928Y-15024500D01*
X20009500Y-15010214D01*
X20052357Y-15010214D01*
X20080928Y-15024500D01*
X20095214Y-15038786D01*
X20109500Y-15067357D01*
X20109500Y-15153071D01*
X20095214Y-15181643D01*
X20080928Y-15195929D01*
X20052357Y-15210214D01*
X20009500Y-15210214D01*
X20280928Y-15210214D02*
X20252357Y-15195929D01*
X20238071Y-15167357D01*
X20238071Y-14910214D01*
X20509500Y-15195929D02*
X20480928Y-15210214D01*
X20423786Y-15210214D01*
X20395214Y-15195929D01*
X20380928Y-15167357D01*
X20380928Y-15053071D01*
X20395214Y-15024500D01*
X20423786Y-15010214D01*
X20480928Y-15010214D01*
X20509500Y-15024500D01*
X20523786Y-15053071D01*
X20523786Y-15081643D01*
X20380928Y-15110214D01*
X20638071Y-15195929D02*
X20666643Y-15210214D01*
X20723786Y-15210214D01*
X20752357Y-15195929D01*
X20766643Y-15167357D01*
X20766643Y-15153071D01*
X20752357Y-15124500D01*
X20723786Y-15110214D01*
X20680928Y-15110214D01*
X20652357Y-15095929D01*
X20638071Y-15067357D01*
X20638071Y-15053071D01*
X20652357Y-15024500D01*
X20680928Y-15010214D01*
X20723786Y-15010214D01*
X20752357Y-15024500D01*
X20866643Y-15324500D02*
X20880928Y-15310214D01*
X20909500Y-15267357D01*
X20923786Y-15238786D01*
X20938071Y-15195929D01*
X20952357Y-15124500D01*
X20952357Y-15067357D01*
X20938071Y-14995929D01*
X20923786Y-14953071D01*
X20909500Y-14924500D01*
X20880928Y-14881643D01*
X20866643Y-14867357D01*
X14039500Y-15415500D02*
X14039500Y-15525500D01*
X13984500Y-15470500D02*
X14094500Y-15470500D01*
X14538071Y-15606214D02*
X14366643Y-15606214D01*
X14452357Y-15606214D02*
X14452357Y-15306214D01*
X14423786Y-15349071D01*
X14395214Y-15377643D01*
X14366643Y-15391929D01*
X14666643Y-15577643D02*
X14680928Y-15591929D01*
X14666643Y-15606214D01*
X14652357Y-15591929D01*
X14666643Y-15577643D01*
X14666643Y-15606214D01*
X14966643Y-15606214D02*
X14795214Y-15606214D01*
X14880928Y-15606214D02*
X14880928Y-15306214D01*
X14852357Y-15349071D01*
X14823786Y-15377643D01*
X14795214Y-15391929D01*
X15152357Y-15306214D02*
X15180928Y-15306214D01*
X15209500Y-15320500D01*
X15223786Y-15334786D01*
X15238071Y-15363357D01*
X15252357Y-15420500D01*
X15252357Y-15491929D01*
X15238071Y-15549071D01*
X15223786Y-15577643D01*
X15209500Y-15591929D01*
X15180928Y-15606214D01*
X15152357Y-15606214D01*
X15123786Y-15591929D01*
X15109500Y-15577643D01*
X15095214Y-15549071D01*
X15080928Y-15491929D01*
X15080928Y-15420500D01*
X15095214Y-15363357D01*
X15109500Y-15334786D01*
X15123786Y-15320500D01*
X15152357Y-15306214D01*
X15380928Y-15606214D02*
X15380928Y-15406214D01*
X15380928Y-15434786D02*
X15395214Y-15420500D01*
X15423786Y-15406214D01*
X15466643Y-15406214D01*
X15495214Y-15420500D01*
X15509500Y-15449071D01*
X15509500Y-15606214D01*
X15509500Y-15449071D02*
X15523786Y-15420500D01*
X15552357Y-15406214D01*
X15595214Y-15406214D01*
X15623786Y-15420500D01*
X15638071Y-15449071D01*
X15638071Y-15606214D01*
X15780928Y-15606214D02*
X15780928Y-15406214D01*
X15780928Y-15434786D02*
X15795214Y-15420500D01*
X15823786Y-15406214D01*
X15866643Y-15406214D01*
X15895214Y-15420500D01*
X15909500Y-15449071D01*
X15909500Y-15606214D01*
X15909500Y-15449071D02*
X15923786Y-15420500D01*
X15952357Y-15406214D01*
X15995214Y-15406214D01*
X16023786Y-15420500D01*
X16038071Y-15449071D01*
X16038071Y-15606214D01*
X16623786Y-15291929D02*
X16366643Y-15677643D01*
X17009500Y-15306214D02*
X17038071Y-15306214D01*
X17066643Y-15320500D01*
X17080928Y-15334786D01*
X17095214Y-15363357D01*
X17109500Y-15420500D01*
X17109500Y-15491929D01*
X17095214Y-15549071D01*
X17080928Y-15577643D01*
X17066643Y-15591929D01*
X17038071Y-15606214D01*
X17009500Y-15606214D01*
X16980928Y-15591929D01*
X16966643Y-15577643D01*
X16952357Y-15549071D01*
X16938071Y-15491929D01*
X16938071Y-15420500D01*
X16952357Y-15363357D01*
X16966643Y-15334786D01*
X16980928Y-15320500D01*
X17009500Y-15306214D01*
X17238071Y-15577643D02*
X17252357Y-15591929D01*
X17238071Y-15606214D01*
X17223786Y-15591929D01*
X17238071Y-15577643D01*
X17238071Y-15606214D01*
X17438071Y-15306214D02*
X17466643Y-15306214D01*
X17495214Y-15320500D01*
X17509500Y-15334786D01*
X17523786Y-15363357D01*
X17538071Y-15420500D01*
X17538071Y-15491929D01*
X17523786Y-15549071D01*
X17509500Y-15577643D01*
X17495214Y-15591929D01*
X17466643Y-15606214D01*
X17438071Y-15606214D01*
X17409500Y-15591929D01*
X17395214Y-15577643D01*
X17380928Y-15549071D01*
X17366643Y-15491929D01*
X17366643Y-15420500D01*
X17380928Y-15363357D01*
X17395214Y-15334786D01*
X17409500Y-15320500D01*
X17438071Y-15306214D01*
X17795214Y-15406214D02*
X17795214Y-15606214D01*
X17723786Y-15291929D02*
X17652357Y-15506214D01*
X17838071Y-15506214D01*
X17923786Y-15306214D02*
X18109500Y-15306214D01*
X18009500Y-15420500D01*
X18052357Y-15420500D01*
X18080928Y-15434786D01*
X18095214Y-15449071D01*
X18109500Y-15477643D01*
X18109500Y-15549071D01*
X18095214Y-15577643D01*
X18080928Y-15591929D01*
X18052357Y-15606214D01*
X17966643Y-15606214D01*
X17938071Y-15591929D01*
X17923786Y-15577643D01*
X18223786Y-15306214D02*
X18223786Y-15363357D01*
X18338071Y-15306214D02*
X18338071Y-15363357D01*
X18780928Y-15720500D02*
X18766643Y-15706214D01*
X18738071Y-15663357D01*
X18723786Y-15634786D01*
X18709500Y-15591929D01*
X18695214Y-15520500D01*
X18695214Y-15463357D01*
X18709500Y-15391929D01*
X18723786Y-15349071D01*
X18738071Y-15320500D01*
X18766643Y-15277643D01*
X18780928Y-15263357D01*
X19023786Y-15406214D02*
X19023786Y-15606214D01*
X18952357Y-15291929D02*
X18880928Y-15506214D01*
X19066643Y-15506214D01*
X19409500Y-15606214D02*
X19409500Y-15306214D01*
X19538071Y-15606214D02*
X19538071Y-15449071D01*
X19523786Y-15420500D01*
X19495214Y-15406214D01*
X19452357Y-15406214D01*
X19423786Y-15420500D01*
X19409500Y-15434786D01*
X19723786Y-15606214D02*
X19695214Y-15591929D01*
X19680928Y-15577643D01*
X19666643Y-15549071D01*
X19666643Y-15463357D01*
X19680928Y-15434786D01*
X19695214Y-15420500D01*
X19723786Y-15406214D01*
X19766643Y-15406214D01*
X19795214Y-15420500D01*
X19809500Y-15434786D01*
X19823786Y-15463357D01*
X19823786Y-15549071D01*
X19809500Y-15577643D01*
X19795214Y-15591929D01*
X19766643Y-15606214D01*
X19723786Y-15606214D01*
X19995214Y-15606214D02*
X19966643Y-15591929D01*
X19952357Y-15563357D01*
X19952357Y-15306214D01*
X20223786Y-15591929D02*
X20195214Y-15606214D01*
X20138071Y-15606214D01*
X20109500Y-15591929D01*
X20095214Y-15563357D01*
X20095214Y-15449071D01*
X20109500Y-15420500D01*
X20138071Y-15406214D01*
X20195214Y-15406214D01*
X20223786Y-15420500D01*
X20238071Y-15449071D01*
X20238071Y-15477643D01*
X20095214Y-15506214D01*
X20352357Y-15591929D02*
X20380928Y-15606214D01*
X20438071Y-15606214D01*
X20466643Y-15591929D01*
X20480928Y-15563357D01*
X20480928Y-15549071D01*
X20466643Y-15520500D01*
X20438071Y-15506214D01*
X20395214Y-15506214D01*
X20366643Y-15491929D01*
X20352357Y-15463357D01*
X20352357Y-15449071D01*
X20366643Y-15420500D01*
X20395214Y-15406214D01*
X20438071Y-15406214D01*
X20466643Y-15420500D01*
X20580928Y-15720500D02*
X20595214Y-15706214D01*
X20623786Y-15663357D01*
X20638071Y-15634786D01*
X20652357Y-15591929D01*
X20666643Y-15520500D01*
X20666643Y-15463357D01*
X20652357Y-15391929D01*
X20638071Y-15349071D01*
X20623786Y-15320500D01*
X20595214Y-15277643D01*
X20580928Y-15263357D01*
M02*
